<svg width="32" height="32" viewBox="0 0 32 32" fill="none" xmlns="http://www.w3.org/2000/svg">
<path d="M10.4133 29.3334L21.5867 29.3334C26.44 29.3334 29.3333 26.44 29.3333 21.5867L29.3333 10.4267C29.3333 5.56004 26.44 2.66671 21.5867 2.66671L10.4267 2.6667C5.57334 2.6667 2.68001 5.56004 2.68001 10.4134L2.68001 21.5867C2.66668 26.44 5.56001 29.3334 10.4133 29.3334ZM7.29334 15.2934L13.0133 9.57337C13.2133 9.37337 13.4667 9.28004 13.72 9.28004C13.9733 9.28004 14.2267 9.37337 14.4267 9.57337C14.8133 9.96004 14.8133 10.6 14.4267 10.9867L10.4133 15L24 15C24.5467 15 25 15.4534 25 16C25 16.5467 24.5467 17 24 17L10.4133 17L14.4267 21.0134C14.8133 21.4 14.8133 22.04 14.4267 22.4267C14.04 22.8134 13.4 22.8134 13.0133 22.4267L7.29334 16.7067C7.10668 16.52 7.00001 16.2667 7.00001 16C7.00001 15.7334 7.10668 15.48 7.29334 15.2934Z" fill="#2ED5AC"/>
</svg>
