<svg width="32" height="32" viewBox="0 0 32 32" fill="none" xmlns="http://www.w3.org/2000/svg">
<path d="M21.5867 2.66663L10.4133 2.66663C5.55999 2.66663 2.66666 5.55996 2.66666 10.4133L2.66666 21.5733C2.66666 26.44 5.55999 29.3333 10.4133 29.3333H21.5733C26.4267 29.3333 29.32 26.44 29.32 21.5866V10.4133C29.3333 5.55996 26.44 2.66663 21.5867 2.66663ZM24.7067 16.7066L18.9867 22.4266C18.7867 22.6266 18.5333 22.72 18.28 22.72C18.0267 22.72 17.7733 22.6266 17.5733 22.4266C17.1867 22.04 17.1867 21.4 17.5733 21.0133L21.5867 17H7.99999C7.45332 17 6.99999 16.5466 6.99999 16C6.99999 15.4533 7.45332 15 7.99999 15L21.5867 15L17.5733 10.9866C17.1867 10.6 17.1867 9.95996 17.5733 9.57329C17.96 9.18663 18.6 9.18663 18.9867 9.57329L24.7067 15.2933C24.8933 15.48 25 15.7333 25 16C25 16.2666 24.8933 16.52 24.7067 16.7066Z" fill="#2ED5AC"/>
</svg>
