<svg width="16" height="16" viewBox="0 0 16 16" fill="none" xmlns="http://www.w3.org/2000/svg">
<path d="M13.9667 2.75336L2.75336 13.9667C3.38669 14.4267 4.21336 14.6667 5.20669 14.6667H10.7934C13.22 14.6667 14.6667 13.22 14.6667 10.7934V5.20669C14.6667 4.21336 14.4267 3.38669 13.9667 2.75336ZM12.3334 10.8334H11.2067V12C11.2067 12.2734 10.98 12.5 10.7067 12.5C10.4334 12.5 10.2067 12.2734 10.2067 12V10.8334H9.00002C8.72669 10.8334 8.50002 10.6067 8.50002 10.3334C8.50002 10.06 8.72669 9.83336 9.00002 9.83336H10.2067V8.66669C10.2067 8.39336 10.4334 8.16669 10.7067 8.16669C10.98 8.16669 11.2067 8.39336 11.2067 8.66669V9.83336H12.3334C12.6067 9.83336 12.8334 10.06 12.8334 10.3334C12.8334 10.6067 12.6067 10.8334 12.3334 10.8334Z" fill="#D7D7D7"/>
<path d="M10.7933 1.33331H5.20665C2.77998 1.33331 1.33331 2.77998 1.33331 5.20665V10.7933C1.33331 11.7866 1.57331 12.6133 2.03331 13.2466L13.2466 2.03331C12.6133 1.57331 11.7866 1.33331 10.7933 1.33331ZM6.99998 5.49998H3.66665C3.39331 5.49998 3.16665 5.27331 3.16665 4.99998C3.16665 4.72665 3.39331 4.49998 3.66665 4.49998H6.99998C7.27331 4.49998 7.49998 4.72665 7.49998 4.99998C7.49998 5.27331 7.27331 5.49998 6.99998 5.49998Z" fill="#D7D7D7"/>
</svg>
