<svg width="44" height="44" viewBox="0 0 44 44" fill="none" xmlns="http://www.w3.org/2000/svg">
<path d="M39.4717 19.9283L36.685 17.1416C36.2083 16.665 35.8233 15.73 35.8233 15.07V11.11C35.8233 9.49664 34.5033 8.17664 32.89 8.17664H28.9483C28.2883 8.17664 27.3533 7.79164 26.8767 7.31497L24.09 4.5283C22.9533 3.39164 21.0833 3.39164 19.9467 4.5283L17.1233 7.31497C16.665 7.79164 15.73 8.17664 15.0517 8.17664H11.11C9.49667 8.17664 8.17667 9.49664 8.17667 11.11V15.0516C8.17667 15.7116 7.79168 16.6466 7.31501 17.1233L4.52834 19.91C3.39168 21.0466 3.39168 22.9166 4.52834 24.0533L7.31501 26.84C7.79168 27.3166 8.17667 28.2516 8.17667 28.9116V32.8533C8.17667 34.4666 9.49667 35.7866 11.11 35.7866H15.0517C15.7117 35.7866 16.6467 36.1716 17.1233 36.6483L19.91 39.435C21.0467 40.5716 22.9167 40.5716 24.0533 39.435L26.84 36.6483C27.3167 36.1716 28.2517 35.7866 28.9117 35.7866H32.8533C34.4667 35.7866 35.7867 34.4666 35.7867 32.8533V28.9116C35.7867 28.2516 36.1717 27.3166 36.6483 26.84L39.435 24.0533C40.6267 22.935 40.6267 21.065 39.4717 19.9283ZM14.6667 16.5C14.6667 15.4916 15.4917 14.6666 16.5 14.6666C17.5083 14.6666 18.3333 15.4916 18.3333 16.5C18.3333 17.5083 17.5267 18.3333 16.5 18.3333C15.4917 18.3333 14.6667 17.5083 14.6667 16.5ZM17.4717 28.4716C17.1967 28.7466 16.8483 28.875 16.5 28.875C16.1517 28.875 15.8033 28.7466 15.5283 28.4716C14.9967 27.94 14.9967 27.06 15.5283 26.5283L26.5283 15.5283C27.06 14.9966 27.94 14.9966 28.4717 15.5283C29.0033 16.06 29.0033 16.94 28.4717 17.4716L17.4717 28.4716ZM27.5 29.3333C26.4733 29.3333 25.6483 28.5083 25.6483 27.5C25.6483 26.4916 26.4733 25.6666 27.4817 25.6666C28.49 25.6666 29.315 26.4916 29.315 27.5C29.315 28.5083 28.5083 29.3333 27.5 29.3333Z" fill="url(#paint0_linear_6_188)"/>
<defs>
<linearGradient id="paint0_linear_6_188" x1="22.0046" y1="3.6758" x2="22.0046" y2="40.2875" gradientUnits="userSpaceOnUse">
<stop stop-color="#2FBB99"/>
<stop offset="1" stop-color="#00FFA3"/>
</linearGradient>
</defs>
</svg>
