<svg width="44" height="44" viewBox="0 0 44 44" fill="none" xmlns="http://www.w3.org/2000/svg">
<path d="M9.16683 27.5C7.29683 27.5 5.5735 28.215 4.27183 29.3883C3.9785 29.645 3.7035 29.92 3.46516 30.2316C2.4385 31.4966 1.8335 33.0916 1.8335 34.8333C1.8335 38.885 5.1335 42.1666 9.16683 42.1666C10.9268 42.1666 12.5218 41.5433 13.7868 40.535C14.8135 39.6733 15.6202 38.555 16.0602 37.2716C16.3535 36.52 16.5002 35.695 16.5002 34.8333C16.5002 30.8 13.2185 27.5 9.16683 27.5ZM13.5668 33.4216C13.5668 33.935 13.1635 34.32 12.6685 34.32C12.1735 34.32 11.7702 33.935 11.7702 33.4216V33.2383C11.7702 33.0366 11.6235 32.8716 11.4218 32.8716H7.75516C7.9385 33.22 7.90183 33.6416 7.6085 33.935C7.4435 34.1 7.2235 34.1916 6.96683 34.1916C6.74683 34.1916 6.5085 34.1 6.3435 33.935L5.0235 32.615C4.95016 32.5416 4.87683 32.4316 4.82183 32.3216C4.7485 32.1016 4.7485 31.8633 4.82183 31.6433C4.87683 31.5516 4.93183 31.4233 5.0235 31.35L6.3435 30.0483C6.69183 29.6816 7.26016 29.6816 7.59016 30.0483C7.8835 30.3233 7.92016 30.7633 7.73683 31.0933H11.4218C12.5952 31.0933 13.5485 32.0466 13.5485 33.2383V33.4216H13.5668ZM11.3668 39.8933C11.1285 39.8933 10.8902 39.82 10.7252 39.6366C10.4318 39.3616 10.3952 38.9216 10.5785 38.5916H6.8935C5.72016 38.5916 4.76683 37.6383 4.76683 36.4466V36.2633C4.76683 35.75 5.17016 35.365 5.66516 35.365C6.16016 35.365 6.5635 35.75 6.5635 36.2633V36.4466C6.5635 36.6483 6.71016 36.8133 6.91183 36.8133H10.5968C10.4135 36.465 10.4502 36.0433 10.7435 35.75C11.0918 35.4016 11.6602 35.4016 11.9902 35.75L13.3102 37.07C13.3835 37.1433 13.4568 37.2533 13.5118 37.3633C13.5852 37.5833 13.5852 37.8216 13.5118 38.0416C13.4568 38.1333 13.3835 38.2433 13.3102 38.3166L11.9902 39.6183C11.8252 39.8016 11.5868 39.8933 11.3668 39.8933Z" fill="url(#paint0_linear_6_192)"/>
<path d="M27.2252 7.24166V14.2083H24.4752V7.24166C24.4752 6.74666 24.0352 6.50833 23.7418 6.50833C23.6502 6.50833 23.5585 6.52666 23.4668 6.56333L8.9285 12.045C7.95683 12.4117 7.3335 13.3283 7.3335 14.3733V15.6017C5.66516 16.8483 4.5835 18.8467 4.5835 21.1017V14.3733C4.5835 12.1917 5.92183 10.2483 7.95683 9.47833L22.5135 3.97833C22.9168 3.83166 23.3385 3.75833 23.7418 3.75833C25.5752 3.75833 27.2252 5.24333 27.2252 7.24166Z" fill="url(#paint1_linear_6_192)"/>
<path d="M39.4166 26.5833V28.4166C39.4166 28.9116 39.0316 29.315 38.5183 29.3333H35.8416C34.87 29.3333 33.99 28.6183 33.9166 27.665C33.8616 27.0966 34.0816 26.565 34.4483 26.1983C34.7783 25.85 35.2366 25.6666 35.7316 25.6666H38.5C39.0316 25.685 39.4166 26.0883 39.4166 26.5833Z" fill="url(#paint2_linear_6_192)"/>
<path d="M35.7135 23.7416H37.5835C38.5918 23.7416 39.4168 22.9166 39.4168 21.9083V21.1016C39.4168 17.3066 36.3185 14.2083 32.5235 14.2083H11.4768C9.9185 14.2083 8.4885 14.7216 7.3335 15.6016C5.66516 16.8483 4.5835 18.8466 4.5835 21.1016V24.365C4.5835 25.0616 5.31683 25.5016 5.97683 25.2816C7.0035 24.9333 8.08516 24.75 9.16683 24.75C14.7218 24.75 19.2502 29.2783 19.2502 34.8333C19.2502 36.1533 18.9018 37.6016 18.3518 38.885C18.0585 39.545 18.5168 40.3333 19.2318 40.3333H32.5235C36.3185 40.3333 39.4168 37.235 39.4168 33.44V33.0916C39.4168 32.0833 38.5918 31.2583 37.5835 31.2583H35.9885C34.2285 31.2583 32.5418 30.1766 32.0835 28.4716C31.7168 27.0783 32.1568 25.7216 33.0735 24.8416C33.7518 24.145 34.6868 23.7416 35.7135 23.7416ZM25.6668 23.375H16.5002C15.7485 23.375 15.1252 22.7516 15.1252 22C15.1252 21.2483 15.7485 20.6249 16.5002 20.6249H25.6668C26.4185 20.6249 27.0418 21.2483 27.0418 22C27.0418 22.7516 26.4185 23.375 25.6668 23.375Z" fill="url(#paint3_linear_6_192)"/>
<defs>
<linearGradient id="paint0_linear_6_192" x1="9.16683" y1="27.5" x2="9.16683" y2="42.1666" gradientUnits="userSpaceOnUse">
<stop stop-color="#FF1C5E"/>
<stop offset="1" stop-color="#FF002E"/>
</linearGradient>
<linearGradient id="paint1_linear_6_192" x1="15.9043" y1="3.75833" x2="15.9043" y2="21.1017" gradientUnits="userSpaceOnUse">
<stop stop-color="#FF1C5E"/>
<stop offset="1" stop-color="#FF002E"/>
</linearGradient>
<linearGradient id="paint2_linear_6_192" x1="36.6625" y1="25.6666" x2="36.6625" y2="29.3333" gradientUnits="userSpaceOnUse">
<stop stop-color="#FF1C5E"/>
<stop offset="1" stop-color="#FF002E"/>
</linearGradient>
<linearGradient id="paint3_linear_6_192" x1="22.0002" y1="14.2083" x2="22.0002" y2="40.3333" gradientUnits="userSpaceOnUse">
<stop stop-color="#FF1C5E"/>
<stop offset="1" stop-color="#FF002E"/>
</linearGradient>
</defs>
</svg>
