<svg width="16" height="16" viewBox="0 0 16 16" fill="none" xmlns="http://www.w3.org/2000/svg">
<path d="M5.96992 1.19574C7.22272 0.457827 8.77728 0.457827 10.0301 1.19574L12.9088 2.89138C14.1188 3.60404 14.8664 4.89897 14.8786 6.30313L14.9077 9.64403C14.9204 11.0979 14.1431 12.4442 12.8776 13.1602L9.96978 14.8055C8.74763 15.497 7.25238 15.497 6.03023 14.8055L3.12238 13.1602C1.85693 12.4442 1.07965 11.0979 1.0923 9.64403L1.12138 6.30313C1.1336 4.89897 1.88123 3.60404 3.09116 2.89138L5.96992 1.19574Z" fill="#2ED5AC"/>
<path d="M6.47449 6.18259L5.44283 6.20934C5.42334 5.4576 5.63561 4.84789 6.07964 4.38022C6.52346 3.90456 7.07726 3.65812 7.74104 3.64091C8.41281 3.6235 8.99422 3.8245 9.48525 4.24391C9.98428 4.66312 10.2428 5.2206 10.2609 5.91637C10.2754 6.47618 10.1239 6.96027 9.80635 7.36864C9.48882 7.777 9.08412 8.06359 8.59222 8.22839C8.3066 8.32383 8.09337 8.43339 7.95253 8.55708C7.81968 8.68057 7.75658 8.87027 7.76321 9.12618L7.75633 9.78658L6.70068 9.81395L6.68358 9.15417C6.66948 8.61036 6.79475 8.19497 7.0594 7.90801C7.33185 7.61285 7.72591 7.37856 8.24158 7.20514C8.50363 7.12632 8.72751 6.96446 8.91322 6.71957C9.10694 6.47446 9.20027 6.21596 9.19322 5.94405C9.18347 5.56818 9.03564 5.26791 8.74972 5.04324C8.4636 4.81058 8.13659 4.69902 7.76872 4.70856C7.40884 4.71789 7.10036 4.85793 6.8433 5.12868C6.58623 5.39944 6.46329 5.75074 6.47449 6.18259ZM6.73174 11.9379C6.57606 11.7978 6.49542 11.6199 6.48982 11.404C6.48422 11.188 6.55553 11.0061 6.70375 10.8582C6.85996 10.7101 7.04603 10.6333 7.26196 10.6277C7.47789 10.6221 7.66369 10.6893 7.81937 10.8293C7.97506 10.9693 8.0557 11.1473 8.06129 11.3632C8.06689 11.5791 7.99558 11.761 7.84737 11.9089C7.69894 12.0488 7.51677 12.1216 7.30084 12.1272C7.08491 12.1328 6.89521 12.0697 6.73174 11.9379Z" fill="white"/>
</svg>
