<svg width="16" height="16" viewBox="0 0 16 16" fill="none" xmlns="http://www.w3.org/2000/svg">
<path d="M7.66671 15.0002C11.1645 15.0002 14 12.1646 14 8.66683C14 5.16903 11.1645 2.3335 7.66671 2.3335C4.1689 2.3335 1.33337 5.16903 1.33337 8.66683C1.33337 12.1646 4.1689 15.0002 7.66671 15.0002Z" fill="#E7E7E7"/>
<path d="M14.2 15.6669C14.08 15.6669 13.96 15.6202 13.8733 15.5335L12.6333 14.2935C12.4533 14.1135 12.4533 13.8202 12.6333 13.6335C12.8133 13.4535 13.1066 13.4535 13.2933 13.6335L14.5333 14.8735C14.7133 15.0535 14.7133 15.3469 14.5333 15.5335C14.44 15.6202 14.32 15.6669 14.2 15.6669Z" fill="#E7E7E7"/>
</svg>
