<svg width="32" height="32" viewBox="0 0 32 32" fill="none" xmlns="http://www.w3.org/2000/svg">
<path d="M21.5867 2.66669H10.4134C5.56002 2.66669 2.66669 5.56002 2.66669 10.4134V21.5734C2.66669 26.44 5.56002 29.3334 10.4134 29.3334H21.5734C26.4267 29.3334 29.32 26.44 29.32 21.5867V10.4134C29.3334 5.56002 26.44 2.66669 21.5867 2.66669ZM24.7067 16.7067L18.9867 22.4267C18.7867 22.6267 18.5334 22.72 18.28 22.72C18.0267 22.72 17.7734 22.6267 17.5734 22.4267C17.1867 22.04 17.1867 21.4 17.5734 21.0134L21.5867 17H8.00002C7.45335 17 7.00002 16.5467 7.00002 16C7.00002 15.4534 7.45335 15 8.00002 15H21.5867L17.5734 10.9867C17.1867 10.6 17.1867 9.96002 17.5734 9.57335C17.96 9.18669 18.6 9.18669 18.9867 9.57335L24.7067 15.2934C24.8934 15.48 25 15.7334 25 16C25 16.2667 24.8934 16.52 24.7067 16.7067Z" fill="#7E829D"/>
</svg>
