<svg width="93" height="26" viewBox="0 0 93 26" fill="none" xmlns="http://www.w3.org/2000/svg">
<path d="M18.7024 3.58334L12.095 1.56897L5.49539 3.58334C5.38849 3.61972 5.30032 3.69739 5.25024 3.79947C5.20006 3.90144 5.19208 4.01941 5.22808 4.12742C5.26397 4.23543 5.34096 4.32453 5.44188 4.37523C5.54291 4.42582 5.65967 4.43388 5.76657 4.39762L12.1141 2.46809L18.4808 4.39762C18.5834 4.41485 18.6884 4.39303 18.7761 4.3365C18.8636 4.27998 18.9273 4.19257 18.9549 4.09138C18.9823 3.99009 18.9719 3.88219 18.9252 3.78828C18.8786 3.69449 18.7991 3.62151 18.7024 3.58334Z" fill="white"/>
<path fill-rule="evenodd" clip-rule="evenodd" d="M21.5026 4.53373C21.5671 4.5982 21.6099 4.68159 21.6249 4.77203C21.9811 7.21721 21.8605 9.70939 21.2696 12.1078C20.3301 15.8779 17.9507 20.2579 12.3097 23.0401L12.1226 23.1289L11.9393 23.0401C6.29064 20.2579 3.91885 15.8779 2.97933 12.104C2.38077 9.7084 2.25104 7.21777 2.5974 4.77203C2.61343 4.67778 2.65938 4.59149 2.72828 4.52601C2.79718 4.46053 2.88531 4.41956 2.97933 4.40927C3.06497 4.40277 3.15063 4.42146 3.2259 4.46332C3.30115 4.50508 3.36278 4.5681 3.40325 4.64465L7.22249 12.1888H16.9959L20.8151 4.64465C20.8566 4.56306 20.9224 4.49679 21.0033 4.45516C21.0841 4.41352 21.1758 4.39875 21.2655 4.41285C21.3552 4.42695 21.4381 4.46926 21.5026 4.53373ZM3.26576 6.26157C3.15187 8.15573 3.32184 10.0564 3.76991 11.8994C4.25745 13.9503 5.16138 15.8763 6.42435 17.5556C7.68732 19.2348 9.28173 20.6308 11.1066 21.6548L6.59617 12.8217L3.26576 6.26157ZM7.65785 13.057L12.0958 21.7358L16.572 13.057H7.65785ZM17.7691 17.5497C19.0324 15.872 19.9382 13.9482 20.4294 11.8994C20.8849 10.0525 21.0576 8.14588 20.9412 6.24612L17.6146 12.8063L13.0888 21.6471C14.9121 20.6224 16.5057 19.2273 17.7691 17.5497Z" fill="white"/>
<path fill-rule="evenodd" clip-rule="evenodd" d="M28.2794 20.7396C28.3904 20.8546 28.5233 20.9454 28.67 21.0066C28.8166 21.0678 28.9741 21.0981 29.1326 21.0955H35.1293V20.271H29.1326C29.081 20.2729 29.0294 20.264 28.9813 20.2449C28.9332 20.2256 28.8895 20.1966 28.8528 20.1595C28.8163 20.1223 28.7877 20.078 28.7688 20.0291C28.7499 19.9803 28.7411 19.928 28.743 19.8755V14.9878C28.7421 14.9367 28.7515 14.886 28.7707 14.8388C28.7897 14.7915 28.8182 14.7487 28.8541 14.7129C28.8905 14.6747 28.934 14.6444 28.9822 14.6236C29.0304 14.6029 29.0823 14.5922 29.1346 14.5923H35.1293V13.7659H29.1326C28.9744 13.7651 28.8177 13.7961 28.6715 13.8571C28.5252 13.9181 28.3922 14.0079 28.2803 14.1213C28.1683 14.2347 28.0797 14.3695 28.0193 14.5179C27.9589 14.6663 27.9282 14.8253 27.9287 14.9858V19.8755C27.9264 20.0362 27.9563 20.1956 28.0166 20.3441C28.0769 20.4926 28.1662 20.6272 28.2794 20.7396ZM39.774 13.7679V21.0955H46.3649V20.271H40.5883V17.8489H45.229V17.0144H40.5883V14.5923H46.3649V13.7659L39.774 13.7679ZM51.0017 21.0955V13.7797H57.0198C57.3384 13.7823 57.6431 13.9118 57.8684 14.1405C58.0936 14.3691 58.2212 14.6784 58.2238 15.0016V17.147C58.2253 17.3077 58.195 17.4672 58.1348 17.616C58.0745 17.7647 57.9856 17.8997 57.8732 18.0129C57.7621 18.128 57.6292 18.2188 57.4825 18.28C57.3358 18.3412 57.1784 18.3714 57.0198 18.3689H55.9171L58.1829 21.0817H57.1095L54.8553 18.3689L51.8161 18.357V21.0955H51.0017ZM52.2057 17.5364H57.0198C57.07 17.537 57.1199 17.5273 57.1664 17.5079C57.2129 17.4885 57.2552 17.4599 57.2906 17.4237C57.3266 17.3881 57.3551 17.3453 57.3742 17.298C57.3933 17.2508 57.4026 17.1999 57.4017 17.1489V14.9996C57.4026 14.9486 57.3933 14.8979 57.3742 14.8506C57.3551 14.8033 57.3266 14.7605 57.2906 14.7248C57.2568 14.6857 57.2152 14.6545 57.1684 14.6334C57.1217 14.6122 57.0709 14.6017 57.0198 14.6023H52.2057C52.1532 14.6025 52.1013 14.6134 52.0531 14.6345C52.0049 14.6555 51.9613 14.6863 51.9251 14.7248C51.8897 14.7609 51.8618 14.8038 51.8431 14.851C51.8244 14.8981 51.8152 14.9488 51.8161 14.9996V17.147C51.8152 17.1979 51.8244 17.2484 51.8431 17.2956C51.8618 17.3429 51.8897 17.3857 51.9251 17.4218C52.0014 17.4937 52.1016 17.534 52.2057 17.5345V17.5364ZM65.7145 14.5923V21.0955H66.5294V14.5923H69.73V13.7659H62.5083V14.5904L65.7145 14.5923ZM74.0162 13.7659H74.8384V21.0936H74.0162V13.7659ZM79.7908 13.7659V21.0936H80.6131V17.8489H82.9389L85.6276 21.0955H86.6799L83.6544 17.4317L86.6799 13.7777H85.6373L82.9491 17.0244H80.6147V13.7659H79.7908Z" fill="white"/>
<path d="M32.0521 8.81326L30.2749 4.60358H29.7494L27.9691 8.81326H28.5502L28.9489 7.8599H31.0724L31.4711 8.81326H32.0521ZM29.9906 5.37432L30.0091 5.30313H30.0152L30.0308 5.37432L30.8776 7.39559H29.1436L29.9906 5.37432Z" fill="white"/>
<path d="M35.2842 8.89998C36.301 8.89998 37.0243 8.19733 37.0243 7.18205V4.60052H36.4772V7.14801C36.4772 7.83518 36.0322 8.39234 35.2842 8.39234C34.5176 8.39234 34.088 7.82589 34.088 7.14181V4.60052H33.544V7.18205C33.544 8.22519 34.3043 8.89998 35.2842 8.89998Z" fill="white"/>
<path d="M40.8988 8.81326C42.2248 8.81326 43.1057 7.97133 43.1057 6.70533C43.1057 5.44551 42.2186 4.60358 40.8895 4.60358H39.3534V8.81326H40.8988ZM39.8912 5.09265H40.8741C41.9188 5.09265 42.5524 5.73957 42.5524 6.71771C42.5524 7.69274 41.9157 8.31801 40.8865 8.31801H39.8912V5.09265Z" fill="white"/>
<path d="M45.7475 8.81326V4.60358H45.2003V8.81326H45.7475Z" fill="white"/>
<path d="M49.6159 8.81326V5.09574H50.9481V4.60358H47.7397V5.09574H49.0688V8.81326H49.6159Z" fill="white"/>
<path d="M55.7654 8.81326V8.31801H53.4905V6.90652H55.4439V6.43603H53.4905V5.10193H55.7375V4.60358H52.9434V8.81326H55.7654Z" fill="white"/>
<path d="M59.3711 8.81326C60.6971 8.81326 61.578 7.97133 61.578 6.70533C61.578 5.44551 60.691 4.60358 59.3619 4.60358H57.8257V8.81326H59.3711ZM58.3635 5.09265H59.3464C60.3911 5.09265 61.0248 5.73957 61.0248 6.71771C61.0248 7.69274 60.388 8.31801 59.3588 8.31801H58.3635V5.09265Z" fill="white"/>
<path d="M68.4745 8.81326C69.1297 8.81326 69.7417 8.3861 69.7417 7.62464C69.7417 7.13248 69.3863 6.71771 68.9412 6.5877C69.2534 6.4515 69.4976 6.09863 69.4976 5.71171C69.4976 5.0524 68.9968 4.60358 68.2983 4.60358H66.5025V8.81326H68.4745ZM67.0558 5.08026H68.2766C68.6476 5.08026 68.9443 5.37742 68.9443 5.75195C68.9443 6.13268 68.6476 6.42983 68.2736 6.42983H67.0558V5.08026ZM67.0558 6.8539H68.4374C68.8547 6.8539 69.1792 7.18201 69.1792 7.58441C69.1792 8.01157 68.8516 8.33039 68.4312 8.33039H67.0558V6.8539Z" fill="white"/>
<path d="M73.3938 8.81326L73.3907 7.19749L75.0907 4.60358H74.4416L73.1218 6.70842H73.1188L71.7927 4.60358H71.1467L72.8467 7.20058V8.81326H73.3938Z" fill="white"/>
<path fill-rule="evenodd" clip-rule="evenodd" d="M79.966 3.95983C81.2471 3.56363 82.6268 3.03536 83.1195 2.47406C83.6122 3.03536 84.992 3.56363 86.2731 3.95983C86.3716 5.41259 85.8788 8.61525 83.1195 9.80386C80.3602 8.61525 79.8674 5.41259 79.966 3.95983ZM82.5203 6.69118L84.4589 4.74977C84.5875 4.621 84.7985 4.621 84.927 4.74977C85.0556 4.87853 85.0556 5.08654 84.927 5.21531L82.7544 7.39114C82.6258 7.51991 82.4181 7.51991 82.2896 7.39114L81.4357 6.536C81.3071 6.40722 81.3071 6.19922 81.4357 6.07045C81.5642 5.94169 81.7719 5.94169 81.9005 6.07045L82.5203 6.69118Z" fill="#1EB994"/>
</svg>
