<svg width="18" height="18" viewBox="0 0 18 18" fill="none" xmlns="http://www.w3.org/2000/svg">
<g opacity="0.5">
<path d="M6.96993 1.19574C8.22272 0.457826 9.77728 0.457827 11.0301 1.19574L14.7662 3.39638C15.9761 4.10904 16.7238 5.40397 16.736 6.80813L16.7737 11.144C16.7864 12.5979 16.0091 13.9442 14.7436 14.6602L10.9698 16.7955C9.74762 17.487 8.25238 17.487 7.03023 16.7955L3.25635 14.6602C1.9909 13.9442 1.21362 12.5979 1.22628 11.144L1.26402 6.80813C1.27624 5.40396 2.02386 4.10904 3.23379 3.39638L6.96993 1.19574Z" fill="white"/>
<path d="M8.08038 6.56767L7.04873 6.59441C7.02924 5.84267 7.24151 5.23296 7.68554 4.76529C8.12936 4.28963 8.68316 4.04319 9.34693 4.02598C10.0187 4.00857 10.6001 4.20957 11.0911 4.62898C11.5902 5.04819 11.8487 5.60567 11.8668 6.30144C11.8813 6.86125 11.7298 7.34534 11.4122 7.75371C11.0947 8.16207 10.69 8.44866 10.1981 8.61346C9.9125 8.7089 9.69926 8.81846 9.55842 8.94216C9.42558 9.06564 9.36247 9.25534 9.36911 9.51125L9.36222 10.1717L8.30658 10.199L8.28947 9.53924C8.27537 8.99543 8.40065 8.58004 8.6653 8.29309C8.93774 7.99792 9.3318 7.76363 9.84748 7.59021C10.1095 7.51139 10.3334 7.34953 10.5191 7.10464C10.7128 6.85953 10.8062 6.60103 10.7991 6.32912C10.7894 5.95325 10.6415 5.65298 10.3556 5.42831C10.0695 5.19565 9.74249 5.08409 9.37461 5.09363C9.01473 5.10296 8.70626 5.243 8.44919 5.51375C8.19212 5.78451 8.06919 6.13581 8.08038 6.56767ZM8.33764 12.3229C8.18196 12.1829 8.10132 12.0049 8.09572 11.789C8.09012 11.5731 8.16143 11.3912 8.30965 11.2433C8.46586 11.0952 8.65193 11.0183 8.86786 11.0127C9.08379 11.0072 9.26959 11.0744 9.42527 11.2144C9.58095 11.3544 9.66159 11.5324 9.66719 11.7483C9.67279 11.9642 9.60148 12.1461 9.45326 12.294C9.30484 12.4339 9.12266 12.5066 8.90674 12.5122C8.69081 12.5178 8.50111 12.4547 8.33764 12.3229Z" fill="#171523"/>
</g>
</svg>
