<svg width="24" height="24" viewBox="0 0 24 24" fill="none" xmlns="http://www.w3.org/2000/svg">
<path d="M2.38113 2.38269L2.3822 2.38162C3.19793 1.56403 4.2486 1.12549 5.79263 0.898719C7.3593 0.668625 9.34797 0.666992 11.9976 0.666992C14.6473 0.666992 16.6362 0.668612 18.2035 0.898212C19.748 1.12447 20.8001 1.56202 21.618 2.37781C22.436 3.19587 22.8746 4.24799 23.1014 5.79254C23.3316 7.35972 23.3332 9.34846 23.3332 11.9981C23.3332 14.6478 23.3316 16.6365 23.1014 18.2037C22.8746 19.7483 22.436 20.8005 21.618 21.6185C20.8 22.4365 19.747 22.8751 18.2016 23.1019C16.6339 23.3321 14.6451 23.3337 11.9976 23.3337C9.35017 23.3337 7.36144 23.3321 5.79423 23.1019C4.24948 22.8751 3.19783 22.4365 2.3822 21.6191L2.38167 21.6185C1.56371 20.8005 1.12505 19.7475 0.898237 18.2021C0.668131 16.6344 0.666504 14.6456 0.666504 11.9981C0.666504 9.35066 0.668131 7.36193 0.898237 5.79472C1.12504 4.24997 1.56364 3.19832 2.38113 2.38269Z" fill="url(#paint0_linear_54_5675)"/>
<path d="M7.423 9.2371C7.438 9.09259 7.3815 8.95004 7.2715 8.85305L6.1515 7.53042V7.33301H9.6305L12.3195 13.1109L14.6835 7.33301H18V7.53042L17.042 8.43029C16.9595 8.49202 16.9185 8.59342 16.9355 8.69384V15.306C16.9185 15.4059 16.9595 15.5073 17.042 15.5691L17.9775 16.4689V16.6663H13.2715V16.4689L14.241 15.547C14.336 15.4539 14.336 15.4265 14.336 15.2839V9.93956L11.6415 16.6448H11.2775L8.14 9.93956V14.4335C8.114 14.6221 8.178 14.8127 8.3135 14.9489L9.574 16.4469V16.6448H6V16.4469L7.2605 14.9489C7.3955 14.8122 7.4555 14.6207 7.423 14.4335V9.2371Z" fill="white"/>
<defs>
<linearGradient id="paint0_linear_54_5675" x1="23.3332" y1="0.666992" x2="-2.35419" y2="19.1313" gradientUnits="userSpaceOnUse">
<stop stop-color="#2A263D"/>
<stop offset="1" stop-color="#1B1928"/>
</linearGradient>
</defs>
</svg>
