<svg width="23" height="21" viewBox="0 0 23 21" fill="none" xmlns="http://www.w3.org/2000/svg">
<g clip-path="url(#clip0_105_4818)">
<path d="M21.6583 0.636719L13.0273 6.82109L14.6323 3.17644L21.6583 0.636719Z" fill="#E17726" stroke="#E17726"/>
<path d="M1.75 0.636719L10.3041 6.87881L8.776 3.17643L1.75 0.636719Z" fill="#E27625" stroke="#E27625"/>
<path d="M18.5509 14.9766L16.2544 18.3739L21.1717 19.685L22.5804 15.0508L18.5509 14.9766Z" fill="#E27625" stroke="#E27625"/>
<path d="M0.836426 15.0508L2.2365 19.685L7.14532 18.3739L4.85737 14.9766L0.836426 15.0508Z" fill="#E27625" stroke="#E27625"/>
<path d="M6.88059 9.23628L5.51465 11.2318L10.3808 11.4462L10.2185 6.375L6.88059 9.23628Z" fill="#E27625" stroke="#E27625"/>
<path d="M16.5275 9.23738L13.1383 6.31836L13.0273 11.4473L17.8934 11.2329L16.5275 9.23738Z" fill="#E27625" stroke="#E27625"/>
<path d="M7.14526 18.3721L10.0905 16.9951L7.55506 15.082L7.14526 18.3721Z" fill="#E27625" stroke="#E27625"/>
<path d="M13.3176 16.9951L16.2543 18.3721L15.8531 15.082L13.3176 16.9951Z" fill="#E27625" stroke="#E27625"/>
<path d="M16.2544 18.3731L13.3176 16.9961L13.5567 18.8431L13.5311 19.6265L16.2544 18.3731Z" fill="#D5BFB2" stroke="#D5BFB2"/>
<path d="M7.14526 18.3731L9.87714 19.6265L9.86005 18.8431L10.0906 16.9961L7.14526 18.3731Z" fill="#D5BFB2" stroke="#D5BFB2"/>
<path d="M9.92843 13.8618L7.48682 13.1692L9.21136 12.4023L9.92843 13.8618Z" fill="#233447" stroke="#233447"/>
<path d="M13.4797 13.8618L14.1969 12.4023L15.9299 13.1692L13.4797 13.8618Z" fill="#233447" stroke="#233447"/>
<path d="M7.14538 18.3739L7.57219 14.9766L4.85742 15.0508L7.14538 18.3739Z" fill="#CC6228" stroke="#CC6228"/>
<path d="M15.8359 14.9766L16.2543 18.3739L18.5507 15.0508L15.8359 14.9766Z" fill="#CC6228" stroke="#CC6228"/>
<path d="M17.8935 11.2324L13.0273 11.4468L13.4798 13.8628L14.1969 12.4033L15.9299 13.1702L17.8935 11.2324Z" fill="#CC6228" stroke="#CC6228"/>
<path d="M7.4867 13.1702L9.21118 12.4033L9.92832 13.8628L10.3808 11.4468L5.51465 11.2324L7.4867 13.1702Z" fill="#CC6228" stroke="#CC6228"/>
<path d="M5.51465 11.2324L7.55501 15.0832L7.48673 13.1702L5.51465 11.2324Z" fill="#E27525" stroke="#E27525"/>
<path d="M15.9298 13.1702L15.853 15.0832L17.8934 11.2324L15.9298 13.1702Z" fill="#E27525" stroke="#E27525"/>
<path d="M10.381 11.4453L9.92847 13.8614L10.5004 16.7144L10.6285 12.9543L10.381 11.4453Z" fill="#E27525" stroke="#E27525"/>
<path d="M13.0274 11.4453L12.7883 12.9461L12.9079 16.7144L13.4798 13.8614L13.0274 11.4453Z" fill="#E27525" stroke="#E27525"/>
<path d="M13.4797 13.8625L12.9077 16.7156L13.3175 16.996L15.853 15.083L15.9298 13.1699L13.4797 13.8625Z" fill="#F5841F" stroke="#F5841F"/>
<path d="M7.48682 13.1699L7.55516 15.083L10.0906 16.996L10.5004 16.7156L9.92843 13.8625L7.48682 13.1699Z" fill="#F5841F" stroke="#F5841F"/>
<path d="M13.531 19.6264L13.5566 18.8431L13.3346 18.6616H10.0735L9.86005 18.8431L9.87714 19.6264L7.14526 18.373L8.10147 19.1317L10.0393 20.4263H13.3603L15.3067 19.1317L16.2543 18.373L13.531 19.6264Z" fill="#C0AC9D" stroke="#C0AC9D"/>
<path d="M13.3177 16.9952L12.9079 16.7148H10.5004L10.0906 16.9952L9.86011 18.8423L10.0735 18.6608H13.3347L13.5567 18.8423L13.3177 16.9952Z" fill="#161616" stroke="#161616"/>
<path d="M22.0254 7.22512L22.751 3.81137L21.6583 0.636719L13.3176 6.61497L16.5275 9.23711L21.0607 10.5152L22.0595 9.38557L21.6241 9.08044L22.3156 8.47029L21.7864 8.07447L22.4779 7.56322L22.0254 7.22512Z" fill="#763E1A" stroke="#763E1A"/>
<path d="M0.657227 3.81137L1.39141 7.22512L0.921878 7.56322L1.62191 8.07447L1.09262 8.47029L1.78411 9.08044L1.34872 9.38557L2.34756 10.5152L6.88076 9.23711L10.0906 6.61497L1.74997 0.636719L0.657227 3.81137Z" fill="#763E1A" stroke="#763E1A"/>
<path d="M21.0606 10.5145L16.5275 9.23633L17.8934 11.2318L15.853 15.0827L18.5507 15.0496H22.5802L21.0606 10.5145Z" fill="#F5841F" stroke="#F5841F"/>
<path d="M6.88064 9.23633L2.34749 10.5145L0.836426 15.0496H4.85737L7.55507 15.0827L5.51472 11.2318L6.88064 9.23633Z" fill="#F5841F" stroke="#F5841F"/>
<path d="M13.0273 11.4463L13.3175 6.61431L14.6323 3.17578H8.77588L10.0906 6.61431L10.3808 11.4463L10.4918 12.9636L10.5004 16.7154H12.9078L12.9163 12.9636L13.0273 11.4463Z" fill="#F5841F" stroke="#F5841F"/>
</g>
<defs>
<clipPath id="clip0_105_4818">
<rect width="23" height="21" fill="white"/>
</clipPath>
</defs>
</svg>
