<svg width="18" height="18" viewBox="0 0 18 18" fill="none" xmlns="http://www.w3.org/2000/svg">
<path d="M2.25 4.6875C2.25 4.04103 2.50681 3.42105 2.96393 2.96393C3.42105 2.50681 4.04103 2.25 4.6875 2.25H13.3125C13.959 2.25 14.579 2.50681 15.0361 2.96393C15.4932 3.42105 15.75 4.04103 15.75 4.6875V13.3125C15.75 13.959 15.4932 14.579 15.0361 15.0361C14.579 15.4932 13.959 15.75 13.3125 15.75H4.6875C4.04103 15.75 3.42105 15.4932 2.96393 15.0361C2.50681 14.579 2.25 13.959 2.25 13.3125V4.6875ZM9.5625 5.8125C9.5625 5.66332 9.50324 5.52024 9.39775 5.41475C9.29226 5.30926 9.14918 5.25 9 5.25C8.85082 5.25 8.70774 5.30926 8.60225 5.41475C8.49676 5.52024 8.4375 5.66332 8.4375 5.8125V8.4375H5.8125C5.66332 8.4375 5.52024 8.49676 5.41475 8.60225C5.30926 8.70774 5.25 8.85082 5.25 9C5.25 9.14918 5.30926 9.29226 5.41475 9.39775C5.52024 9.50324 5.66332 9.5625 5.8125 9.5625H8.4375V12.1875C8.4375 12.3367 8.49676 12.4798 8.60225 12.5852C8.70774 12.6907 8.85082 12.75 9 12.75C9.14918 12.75 9.29226 12.6907 9.39775 12.5852C9.50324 12.4798 9.5625 12.3367 9.5625 12.1875V9.5625H12.1875C12.3367 9.5625 12.4798 9.50324 12.5852 9.39775C12.6907 9.29226 12.75 9.14918 12.75 9C12.75 8.85082 12.6907 8.70774 12.5852 8.60225C12.4798 8.49676 12.3367 8.4375 12.1875 8.4375H9.5625V5.8125Z" fill="#2ED5AC"/>
</svg>
