<svg width="32" height="32" viewBox="0 0 32 32" fill="none" xmlns="http://www.w3.org/2000/svg">
<circle cx="16" cy="16" r="16" fill="white"/>
<path fill-rule="evenodd" clip-rule="evenodd" d="M16 28C22.6274 28 28 22.6274 28 16C28 9.37258 22.6274 4 16 4C9.37258 4 4 9.37258 4 16C4 22.6274 9.37258 28 16 28ZM16 12.3194V10.7545C13.1038 10.7545 10.75 13.1062 10.75 15.9999C10.75 16.6905 10.8813 17.3637 11.135 17.9669C11.2663 18.2816 11.17 18.64 10.9338 18.8761C10.4875 19.3219 9.735 19.1646 9.49875 18.5788C9.175 17.7833 9 16.9091 9 15.9999C9 12.1358 12.1325 9.00602 16 9.00602V7.44115C16 7.04775 16.4725 6.85542 16.7438 7.12643L19.185 9.56553C19.36 9.74037 19.36 10.0114 19.185 10.1862L16.7438 12.6253C16.4725 12.9051 16 12.7128 16 12.3194ZM20.865 14.0328C20.7337 13.7269 20.83 13.3597 21.0662 13.1236C21.5125 12.6778 22.265 12.8351 22.5013 13.4209C22.825 14.2164 23 15.0907 23 15.9999C23 19.8639 19.8675 22.9937 16 22.9937V24.5673C16 24.952 15.5275 25.1443 15.2562 24.8733L12.815 22.4342C12.64 22.2593 12.64 21.9883 12.815 21.8135L15.2562 19.3744C15.5275 19.0946 16 19.287 16 19.6804V21.2452C18.8962 21.2452 21.25 18.8936 21.25 15.9999C21.25 15.3092 21.11 14.6448 20.865 14.0328Z" fill="#2ED5AC"/>
</svg>
