<svg width="32" height="30" viewBox="0 0 32 30" fill="none" xmlns="http://www.w3.org/2000/svg">
<g opacity="0.25">
<rect width="31.7647" height="30" rx="8" fill="#2B2B40"/>
<path d="M21.0024 10C21.0024 9.44772 20.5547 9 20.0024 9C19.4502 9 19.0024 9.44772 19.0024 10V20C19.0024 20.5523 19.4502 21 20.0024 21C20.5547 21 21.0024 20.5523 21.0024 20V10Z" fill="white"/>
<path d="M15.1725 15.0005L11.2925 18.8805C10.9025 19.2705 10.9125 19.9105 11.2925 20.3005C11.6825 20.6905 12.3125 20.6905 12.7025 20.3005L17.2925 15.7105C17.6825 15.3205 17.6825 14.6905 17.2925 14.3005L12.7025 9.71047C12.3125 9.32047 11.6825 9.32047 11.2925 9.71047C10.9025 10.1005 10.9025 10.7305 11.2925 11.1205L15.1725 15.0005Z" fill="white"/>
</g>
</svg>
