<svg width="44" height="44" viewBox="0 0 44 44" fill="none" xmlns="http://www.w3.org/2000/svg">
<path d="M29.6817 3.66675H14.3183C7.645 3.66675 3.66666 7.64508 3.66666 14.3184V29.6634C3.66666 36.3551 7.645 40.3334 14.3183 40.3334H29.6633C36.3367 40.3334 40.315 36.3551 40.315 29.6817V14.3184C40.3333 7.64508 36.355 3.66675 29.6817 3.66675ZM20.0383 31.4417C20.0383 31.6251 20.0017 31.7901 19.9283 31.9734C19.7817 32.3034 19.525 32.5784 19.1767 32.7251C19.0117 32.7984 18.8283 32.8351 18.645 32.8351C18.4617 32.8351 18.2967 32.7984 18.1133 32.7251C17.9483 32.6517 17.8017 32.5601 17.6733 32.4317L12.1 26.8584C11.5683 26.3267 11.5683 25.4467 12.1 24.9151C12.6317 24.3834 13.5117 24.3834 14.0433 24.9151L17.27 28.1417V12.5584C17.27 11.8067 17.8933 11.1834 18.645 11.1834C19.3967 11.1834 20.02 11.8067 20.02 12.5584V31.4417H20.0383ZM31.8817 19.1034C31.6067 19.3784 31.2583 19.5067 30.91 19.5067C30.5617 19.5067 30.2133 19.3784 29.9383 19.1034L26.7117 15.8767V31.4601C26.7117 32.2117 26.0883 32.8351 25.3367 32.8351C24.585 32.8351 23.9617 32.2117 23.9617 31.4601V12.5584C23.9617 12.3751 23.9983 12.2101 24.0717 12.0267C24.2183 11.6967 24.475 11.4217 24.8233 11.2751C25.1533 11.1284 25.5383 11.1284 25.8683 11.2751C26.0333 11.3484 26.18 11.4401 26.3083 11.5684L31.8817 17.1417C32.4133 17.6917 32.4133 18.5534 31.8817 19.1034Z" fill="white"/>
</svg>
