<svg width="24" height="24" viewBox="0 0 24 24" fill="none" xmlns="http://www.w3.org/2000/svg">
<path d="M2.38113 2.38269L2.3822 2.38162C3.19793 1.56403 4.2486 1.12549 5.79263 0.898719C7.3593 0.668625 9.34797 0.666992 11.9976 0.666992C14.6473 0.666992 16.6362 0.668612 18.2035 0.898212C19.748 1.12447 20.8001 1.56202 21.618 2.37781C22.436 3.19587 22.8746 4.24799 23.1014 5.79255C23.3316 7.35972 23.3332 9.34846 23.3332 11.9981C23.3332 14.6478 23.3316 16.6365 23.1014 18.2037C22.8746 19.7483 22.436 20.8005 21.618 21.6185C20.8 22.4365 19.747 22.8751 18.2016 23.1019C16.6339 23.3321 14.6451 23.3337 11.9976 23.3337C9.35017 23.3337 7.36144 23.3321 5.79423 23.1019C4.24948 22.8751 3.19783 22.4365 2.3822 21.6191L2.38167 21.6185C1.56371 20.8005 1.12505 19.7475 0.898237 18.2021C0.668131 16.6344 0.666504 14.6456 0.666504 11.9981C0.666504 9.35066 0.668131 7.36193 0.898237 5.79472C1.12504 4.24997 1.56364 3.19832 2.38113 2.38269Z" fill="url(#paint0_linear_202_5161)"/>
<path d="M17.962 7.03173L15.9499 16.6492C15.7981 17.328 15.4023 17.4969 14.8397 17.1771L11.7739 14.8874L10.2947 16.3294C10.1309 16.4953 9.99406 16.6341 9.67852 16.6341L9.89879 13.4695L15.5809 8.2656C15.8279 8.0424 15.5273 7.91867 15.1969 8.14193L8.17246 12.6249L5.14836 11.6655C4.49056 11.4573 4.47866 10.9988 5.28528 10.679L17.1137 6.06035C17.6614 5.85219 18.1406 6.18404 17.962 7.03173Z" fill="white"/>
<defs>
<linearGradient id="paint0_linear_202_5161" x1="23.3332" y1="0.666992" x2="-2.35419" y2="19.1313" gradientUnits="userSpaceOnUse">
<stop stop-color="#2A263D"/>
<stop offset="1" stop-color="#1B1928"/>
</linearGradient>
</defs>
</svg>
