<svg width="24" height="24" viewBox="0 0 24 24" fill="none" xmlns="http://www.w3.org/2000/svg">
<path d="M2.38113 2.38269L2.3822 2.38162C3.19793 1.56403 4.2486 1.12549 5.79263 0.898719C7.3593 0.668625 9.34797 0.666992 11.9976 0.666992C14.6473 0.666992 16.6362 0.668612 18.2035 0.898212C19.748 1.12447 20.8001 1.56202 21.618 2.37781C22.436 3.19587 22.8746 4.24799 23.1014 5.79254C23.3316 7.35972 23.3332 9.34846 23.3332 11.9981C23.3332 14.6478 23.3316 16.6365 23.1014 18.2037C22.8746 19.7483 22.436 20.8005 21.618 21.6185C20.8 22.4365 19.747 22.8751 18.2016 23.1019C16.6339 23.3321 14.6451 23.3337 11.9976 23.3337C9.35017 23.3337 7.36144 23.3321 5.79423 23.1019C4.24948 22.8751 3.19783 22.4365 2.3822 21.6191L2.38167 21.6185C1.56371 20.8005 1.12505 19.7475 0.898237 18.2021C0.668131 16.6344 0.666504 14.6456 0.666504 11.9981C0.666504 9.35066 0.668131 7.36193 0.898237 5.79472C1.12504 4.24997 1.56364 3.19832 2.38113 2.38269Z" fill="url(#paint0_linear_202_5164)"/>
<path d="M18.7918 7.87976C18.3047 8.09559 17.7815 8.24142 17.2314 8.30734C17.799 7.96772 18.2236 7.4332 18.4261 6.80351C17.8928 7.12025 17.3092 7.34321 16.7005 7.46267C16.2913 7.02568 15.7492 6.73603 15.1584 6.6387C14.5676 6.54137 13.9613 6.6418 13.4334 6.92441C12.9056 7.20701 12.4858 7.65597 12.2393 8.20159C11.9928 8.7472 11.9333 9.35895 12.07 9.94184C10.9895 9.88759 9.9325 9.60675 8.96755 9.11754C8.00259 8.62833 7.15129 7.94169 6.46888 7.10217C6.23555 7.50467 6.10138 7.97134 6.10138 8.46834C6.10112 8.91576 6.2113 9.35632 6.42214 9.75094C6.63299 10.1456 6.93798 10.482 7.31005 10.7305C6.87854 10.7168 6.45656 10.6002 6.07921 10.3904V10.4254C6.07917 11.0529 6.29623 11.6611 6.69357 12.1468C7.09091 12.6325 7.64405 12.9658 8.25913 13.0901C7.85884 13.1984 7.43916 13.2144 7.0318 13.1368C7.20534 13.6767 7.54338 14.1489 7.9986 14.4871C8.45381 14.8254 9.00342 15.0129 9.57047 15.0233C8.60787 15.7789 7.41907 16.1888 6.1953 16.187C5.97852 16.1871 5.76193 16.1744 5.54663 16.1491C6.78883 16.9478 8.23483 17.3717 9.71163 17.37C14.7108 17.37 17.4437 13.2295 17.4437 9.63851C17.4437 9.52184 17.4408 9.40401 17.4355 9.28734C17.9671 8.90291 18.426 8.42686 18.7906 7.88151L18.7918 7.87976Z" fill="white"/>
<defs>
<linearGradient id="paint0_linear_202_5164" x1="23.3332" y1="0.666992" x2="-2.35419" y2="19.1313" gradientUnits="userSpaceOnUse">
<stop stop-color="#2A263D"/>
<stop offset="1" stop-color="#1B1928"/>
</linearGradient>
</defs>
</svg>
