<svg width="24" height="24" viewBox="0 0 24 24" fill="none" xmlns="http://www.w3.org/2000/svg">
<path d="M2.38113 2.38269L2.3822 2.38162C3.19793 1.56403 4.2486 1.12549 5.79263 0.898719C7.3593 0.668625 9.34797 0.666992 11.9976 0.666992C14.6473 0.666992 16.6362 0.668612 18.2035 0.898212C19.748 1.12447 20.8001 1.56202 21.618 2.37781C22.436 3.19587 22.8746 4.24799 23.1014 5.79255C23.3316 7.35972 23.3332 9.34846 23.3332 11.9981C23.3332 14.6478 23.3316 16.6365 23.1014 18.2037C22.8746 19.7483 22.436 20.8005 21.618 21.6185C20.8 22.4365 19.747 22.8751 18.2016 23.1019C16.6339 23.3321 14.6451 23.3337 11.9976 23.3337C9.35017 23.3337 7.36144 23.3321 5.79423 23.1019C4.24948 22.8751 3.19783 22.4365 2.3822 21.6191L2.38167 21.6185C1.56371 20.8005 1.12505 19.7475 0.898237 18.2021C0.668131 16.6344 0.666504 14.6456 0.666504 11.9981C0.666504 9.35066 0.668131 7.36193 0.898237 5.79472C1.12504 4.24997 1.56364 3.19832 2.38113 2.38269Z" fill="url(#paint0_linear_54_5679)"/>
<path fill-rule="evenodd" clip-rule="evenodd" d="M17.869 7.01251C18.5115 7.1875 19.0181 7.70001 19.1911 8.35001C19.5124 9.53752 19.5 12.0125 19.5 12.0125C19.5 12.0125 19.5 14.4751 19.1911 15.6625C19.0181 16.3126 18.5115 16.825 17.869 17.0001C16.6952 17.3125 12 17.3125 12 17.3125C12 17.3125 7.31714 17.3125 6.13097 16.9876C5.48847 16.8126 4.98187 16.3 4.80889 15.6501C4.5 14.4751 4.5 12.0001 4.5 12.0001C4.5 12.0001 4.5 9.53752 4.80889 8.35001C4.98187 7.70001 5.50082 7.17501 6.13097 7C7.30478 6.6875 12 6.6875 12 6.6875C12 6.6875 16.6952 6.6875 17.869 7.01251ZM10.5049 9.72502L14.4093 12.0001L10.5049 14.275V9.72502Z" fill="white"/>
<defs>
<linearGradient id="paint0_linear_54_5679" x1="23.3332" y1="0.666992" x2="-2.35419" y2="19.1313" gradientUnits="userSpaceOnUse">
<stop stop-color="#2A263D"/>
<stop offset="1" stop-color="#1B1928"/>
</linearGradient>
</defs>
</svg>
