<svg width="20" height="20" viewBox="0 0 20 20" fill="none" xmlns="http://www.w3.org/2000/svg">
<path d="M12.8457 6.12461C12.6045 6.12474 12.3708 6.2085 12.1844 6.36161C11.9981 6.51473 11.8706 6.72772 11.8236 6.96431C11.7767 7.2009 11.8132 7.44644 11.927 7.65911C12.0408 7.87177 12.2249 8.03839 12.4478 8.13059C12.6706 8.22279 12.9186 8.23486 13.1494 8.16474C13.3802 8.09462 13.5795 7.94665 13.7134 7.74604C13.8473 7.54544 13.9075 7.3046 13.8838 7.06458C13.8601 6.82455 13.7538 6.60018 13.5832 6.42969C13.4865 6.33274 13.3715 6.25587 13.2449 6.20352C13.1183 6.15116 12.9827 6.12434 12.8457 6.12461Z" fill="white"/>
<path d="M18.65 1.95547C18.6498 1.9543 18.6498 1.95312 18.65 1.95195C18.617 1.80715 18.5441 1.67447 18.4397 1.56886C18.3353 1.46326 18.2034 1.38894 18.059 1.3543C16.8949 1.07031 15.0637 1.37305 13.0344 2.18555C10.9891 3.00586 9.07265 4.2168 7.77734 5.51445C7.36216 5.92743 6.97645 6.36901 6.62305 6.83594C5.75078 6.79688 4.98242 6.92109 4.33516 7.20352C2.07969 8.19609 1.43555 10.7363 1.26406 11.7793C1.23925 11.9275 1.24896 12.0794 1.29245 12.2232C1.33594 12.3671 1.41204 12.4989 1.51481 12.6085C1.61758 12.7181 1.74426 12.8025 1.88498 12.8552C2.02571 12.9079 2.17669 12.9273 2.32617 12.9121H2.33125L4.84375 12.6379C4.84687 12.6699 4.85039 12.6992 4.85312 12.7262C4.88539 13.0323 5.02193 13.3181 5.23984 13.5355L6.46601 14.7625C6.68315 14.9807 6.96885 15.1174 7.275 15.1496L7.35898 15.1586L7.08555 17.668V17.673C7.07157 17.8082 7.08595 17.9448 7.12777 18.074C7.16958 18.2033 7.23792 18.3224 7.32839 18.4238C7.41887 18.5252 7.52951 18.6065 7.65322 18.6627C7.77694 18.7189 7.91101 18.7486 8.04687 18.75C8.10118 18.75 8.1554 18.7456 8.20898 18.7367C9.25781 18.568 11.7969 17.9316 12.7867 15.6641C13.0668 15.0211 13.1906 14.2559 13.1559 13.3852C13.6249 13.0325 14.0681 12.6468 14.482 12.2309C15.7879 10.9316 17.0027 9.03086 17.8144 7.01523C18.6227 5.00898 18.927 3.16406 18.65 1.95547ZM14.468 8.78672C14.147 9.10802 13.738 9.3269 13.2926 9.41567C12.8472 9.50445 12.3855 9.45913 11.9658 9.28544C11.5462 9.11175 11.1875 8.81751 10.9352 8.43993C10.6828 8.06235 10.5481 7.61841 10.5481 7.16426C10.5481 6.71011 10.6828 6.26616 10.9352 5.88858C11.1875 5.51101 11.5462 5.21676 11.9658 5.04308C12.3855 4.86939 12.8472 4.82407 13.2926 4.91284C13.738 5.00162 14.147 5.2205 14.468 5.5418C14.6831 5.7537 14.8539 6.00626 14.9705 6.2848C15.0872 6.56334 15.1472 6.86229 15.1472 7.16426C15.1472 7.46622 15.0872 7.76517 14.9705 8.04371C14.8539 8.32225 14.6831 8.57482 14.468 8.78672Z" fill="white"/>
<path d="M6.32539 15.0953C6.17423 15.0766 6.02143 15.1136 5.8957 15.1996C5.64609 15.3703 5.39531 15.5391 5.14218 15.7035C4.63008 16.0363 4.01758 15.452 4.32187 14.9223L4.79648 14.102C4.86433 14.0027 4.90212 13.886 4.9053 13.7658C4.90848 13.6456 4.87692 13.527 4.81442 13.4243C4.75191 13.3216 4.6611 13.2391 4.55288 13.1867C4.44467 13.1343 4.32363 13.1142 4.20429 13.1289C3.67754 13.1955 3.1879 13.4355 2.8125 13.8109C2.66953 13.9543 2.23476 14.3895 2.00078 16.0477C1.93418 16.524 1.8922 17.0034 1.875 17.484C1.87286 17.5674 1.88745 17.6504 1.9179 17.7281C1.94835 17.8058 1.99405 17.8766 2.0523 17.9363C2.11055 17.9961 2.18017 18.0435 2.25706 18.0759C2.33396 18.1083 2.41656 18.125 2.5 18.125H2.51562C2.99661 18.108 3.47641 18.0662 3.95312 18C5.61211 17.7656 6.04726 17.3305 6.19023 17.1875C6.56745 16.8119 6.80681 16.32 6.86953 15.7914C6.88961 15.627 6.84358 15.4613 6.74154 15.3307C6.63951 15.2002 6.48982 15.1155 6.32539 15.0953Z" fill="white"/>
</svg>
