<svg width="76" height="76" viewBox="0 0 76 76" fill="none" xmlns="http://www.w3.org/2000/svg">
<path d="M38 76C58.9868 76 76 58.9868 76 38C76 17.0132 58.9868 0 38 0C17.0132 0 0 17.0132 0 38C0 58.9868 17.0132 76 38 76Z" fill="#0A2E3D"/>
<path d="M38.2017 49.5858C39.1067 49.5858 39.8664 48.9654 40.0786 48.1266L45.6038 26.2172C46.4436 22.8626 49.4833 20.3711 53.0942 20.3711C57.3509 20.3711 60.8136 23.8337 60.8136 28.0904V52.704C60.8136 54.3187 59.5048 55.6275 57.8911 55.6275C56.277 55.6275 54.9683 54.3193 54.9683 52.704V28.0904C54.9683 27.0576 54.1272 26.2165 53.0942 26.2165C52.2158 26.2165 51.4773 26.8226 51.2753 27.6394L45.664 49.8857C44.7887 53.1869 41.7747 55.6284 38.2017 55.6284C34.6281 55.6284 31.6141 53.1869 30.7379 49.8857L25.1275 27.6394C24.9252 26.8226 24.186 26.2165 23.3083 26.2165C22.2748 26.2165 21.4336 27.0576 21.4336 28.0904V29.832C21.4336 31.4458 20.1248 32.7546 18.511 32.7546C16.8971 32.7546 15.5883 31.4458 15.5883 29.832V28.0904C15.5883 23.8337 19.0517 20.3711 23.3083 20.3711C26.9193 20.3711 29.9592 22.8626 30.798 26.2172L36.3248 48.1266C36.5376 48.9654 37.2967 49.5858 38.2017 49.5858Z" fill="white"/>
<path d="M18.511 55.6277C20.1248 55.6277 21.4336 54.3196 21.4336 52.7042V46.167C21.4336 44.5529 20.1248 43.2441 18.511 43.2441C16.8971 43.2441 15.5883 44.5529 15.5883 46.167V52.7042C15.5883 54.3189 16.8971 55.6277 18.511 55.6277Z" fill="white"/>
<path d="M16.5101 35.9983C16.8714 35.637 17.1825 35.3402 17.4463 35.0986L17.473 35.0742C18.0593 34.5432 18.9545 34.5419 19.5431 35.0689L19.5728 35.0955C19.8375 35.338 20.1492 35.6354 20.512 35.9973L20.5174 36.0027C20.8778 36.3634 21.1729 36.6734 21.414 36.9366L21.4406 36.9663C21.9677 37.555 21.9654 38.4502 21.4353 39.0364L21.411 39.063C21.1691 39.3271 20.8725 39.638 20.5113 39.9994L20.5052 40.0054C20.1462 40.3635 19.8375 40.6587 19.5751 40.899L19.5484 40.9234C18.9621 41.4541 18.0669 41.4557 17.4783 40.9288L17.4486 40.9022C17.1855 40.6609 16.8752 40.3657 16.5147 40.0054L16.5094 40C16.1466 39.6374 15.8492 39.3255 15.6074 39.0608L15.5808 39.0313C15.0537 38.4426 15.056 37.5474 15.5861 36.9609L15.6104 36.9343C15.8508 36.6721 16.1459 36.3624 16.5048 36.0037L16.5101 35.9983Z" fill="#F5BB39"/>
</svg>
