<svg width="32" height="32" viewBox="0 0 32 32" fill="none" xmlns="http://www.w3.org/2000/svg">
<g clip-path="url(#clip0_50_3596)">
<path d="M16 31.9999C24.8365 31.9999 32 24.8365 32 16C32 7.16343 24.8365 0 16 0C7.16344 0 0 7.16343 0 16C0 24.8365 7.16344 31.9999 16 31.9999Z" fill="white"/>
<path d="M28.3936 6.01953C27.284 6.23889 26.2259 6.54856 25.3549 6.7421C23.3679 7.18726 21.5097 8.70985 21.1033 11.4969C20.742 13.9872 21.5807 15.0583 21.2129 17.9549C20.5679 23.0131 15.7163 24.7549 13.4517 25.8131C12.142 26.4195 8.96138 27.8131 6.50977 28.8776C9.16783 30.8388 12.4452 32.0001 16.0001 32.0001C24.8388 32.0001 32 24.8388 32 16.0001C32 12.2324 30.6968 8.7679 28.5161 6.03889C28.4775 6.03244 28.4388 6.02598 28.3936 6.01953Z" fill="#2ED5AC"/>
<path d="M14.2 13.6516C15.4323 10.9871 14.9871 10.9806 15.9225 8.4774C17.1032 5.30321 20.7741 6.20644 21.7871 6.34192C23.458 6.56773 23.8968 5.97419 27.4193 5.40644C27.5935 5.38064 27.7612 5.35483 27.9291 5.33547C25 2.06451 20.7419 0 16 0C9.63225 0 4.13548 3.71612 1.56129 9.10321C6.83871 10.4129 12.5355 13.258 14.2 13.6516ZM10.7032 2.78709C11.1677 2.85805 13.4257 5.66451 13.8516 12.8709C13.8516 12.8709 10.9484 12.1742 10.3226 10.6774C9.80644 9.44515 10.4774 7.82579 10.7032 2.78709ZM28.4903 6.00644C28.4968 6.01935 28.5096 6.0258 28.5161 6.03869C28.4773 6.03224 28.4323 6.03224 28.3935 6.0258C28.4257 6.01289 28.458 6.01289 28.4903 6.00644ZM0 16C0 14.7225 0.148387 13.4839 0.432257 12.2967C1.0129 12.7806 1.63225 13.3161 2.29032 13.9291C6.45805 17.7935 13.2387 20.8451 15.7096 18.0064C15.7161 18.0128 15.7225 18.0128 15.7225 18.0193C15.2709 18.6128 13.5484 20.4903 10.2581 19.9096L5.05805 27.6709C1.94839 24.7548 0 20.6064 0 16Z" fill="#2ED5AC"/>
</g>
<defs>
<clipPath id="clip0_50_3596">
<rect width="32" height="32" fill="white"/>
</clipPath>
</defs>
</svg>
