<svg width="28" height="28" viewBox="0 0 28 28" fill="none" xmlns="http://www.w3.org/2000/svg">
<path d="M14 28C21.732 28 28 21.732 28 14C28 6.26801 21.732 0 14 0C6.26801 0 0 6.26801 0 14C0 21.732 6.26801 28 14 28Z" fill="white"/>
<path d="M14.3364 9.2251H12.336V13.1687H15.4831V14.8199H12.336V18.7633H14.4344C14.9735 18.7633 18.8606 18.8242 18.8546 14.1752C18.8486 9.52624 15.0845 9.2251 14.3364 9.2251Z" fill="#C2A633"/>
<path d="M14 0C6.26794 0 0 6.26794 0 14C0 21.7321 6.26794 28 14 28C21.7321 28 28 21.7321 28 14C28 6.26794 21.7321 0 14 0ZM14.5501 21.5614H9.47996V14.821H7.69272V13.1698H9.47982V6.42894H13.8313C14.8608 6.42894 21.6791 6.21516 21.6791 14.1217C21.6791 22.159 14.5502 21.5614 14.5502 21.5614H14.5501Z" fill="#C2A633"/>
</svg>
