<svg width="28" height="28" viewBox="0 0 28 28" fill="none" xmlns="http://www.w3.org/2000/svg">
<mask id="mask0_6_92" style="mask-type:alpha" maskUnits="userSpaceOnUse" x="0" y="0" width="28" height="28">
<path fill-rule="evenodd" clip-rule="evenodd" d="M0 0H28V28H0V0Z" fill="white"/>
</mask>
<g mask="url(#mask0_6_92)">
<path fill-rule="evenodd" clip-rule="evenodd" d="M14 28C6.3 28 0 21.7 0 13.9299C0.0701609 6.22988 6.3 -0.0701184 14.0701 -0.000279384C21.7701 0.0698816 28 6.30003 28 14.14C27.9301 21.7699 21.7 28 14 28Z" fill="#0090FF"/>
<path fill-rule="evenodd" clip-rule="evenodd" d="M15.3304 12.3201L14.9104 14.5601L18.9003 15.1201L18.6203 16.1702L14.7003 15.6102C14.4203 16.5203 14.2803 17.5003 13.9304 18.3403L12.8104 21.2106C12.2504 22.4007 11.2704 23.2407 9.94027 23.4506C9.17044 23.5906 8.33044 23.5207 7.70027 23.0306C7.49044 22.8906 7.28027 22.6106 7.28027 22.4007C7.28027 22.1207 7.42027 21.7706 7.63044 21.6308C7.77044 21.5607 8.12027 21.6308 8.33044 21.7007C8.5555 21.9271 8.74438 22.187 8.89044 22.4708C9.31044 23.0308 9.87044 23.101 10.4304 22.6807C11.0603 22.1207 11.4104 21.3508 11.6203 20.5807C12.0403 18.9007 12.4603 17.2906 12.8104 15.6106V15.3306L9.10027 14.7706L9.24027 13.7207L13.0904 14.2807L13.5803 12.1106L9.59044 11.4807L9.73044 10.3607L13.8603 10.9207C14.0003 10.5007 14.0704 10.1505 14.2104 9.8007C14.5603 8.5407 14.9104 7.2807 15.7504 6.1607C16.5904 5.0407 17.5704 4.3407 19.0403 4.41086C19.6704 4.41086 20.3003 4.62103 20.7203 5.11086C20.7904 5.18103 20.9304 5.3207 20.9304 5.4607C20.9304 5.7407 20.9304 6.09086 20.7203 6.3007C20.4403 6.51086 20.0904 6.4407 19.8104 6.1607C19.6003 5.95086 19.4603 5.7407 19.2504 5.53086C18.8304 4.97086 18.2003 4.9007 17.7104 5.39086C17.3603 5.7407 17.0104 6.23086 16.8003 6.72103C16.3104 8.19118 15.9603 9.73118 15.4704 11.2709L19.3203 11.8308L19.0403 12.881L15.3304 12.321V12.3201Z" fill="white"/>
</g>
</svg>
