<svg width="74" height="74" viewBox="0 0 74 74" fill="none" xmlns="http://www.w3.org/2000/svg">
<mask id="mask0_51_4109" style="mask-type:alpha" maskUnits="userSpaceOnUse" x="0" y="0" width="74" height="74">
<path d="M37 74C57.4345 74 74 57.4345 74 37C74 16.5655 57.4345 0 37 0C16.5655 0 0 16.5655 0 37C0 57.4345 16.5655 74 37 74Z" fill="#C4C4C4"/>
</mask>
<g mask="url(#mask0_51_4109)">
<path d="M37 74C57.4345 74 74 57.4345 74 37C74 16.5655 57.4345 0 37 0C16.5655 0 0 16.5655 0 37C0 57.4345 16.5655 74 37 74Z" fill="#282728"/>
<g style="mix-blend-mode:multiply" opacity="0.2">
<g style="mix-blend-mode:multiply" opacity="0.2">
<g style="mix-blend-mode:multiply" opacity="0.2">
<path fill-rule="evenodd" clip-rule="evenodd" d="M37 71.587C56.1019 71.587 71.587 56.1019 71.587 37C71.587 17.8982 56.1019 2.41308 37 2.41308C17.8982 2.41308 2.41308 17.8982 2.41308 37C2.41308 56.1019 17.8982 71.587 37 71.587ZM37 74C57.4345 74 74 57.4345 74 37C74 16.5655 57.4345 0 37 0C16.5655 0 0 16.5655 0 37C0 57.4345 16.5655 74 37 74Z" fill="#191326"/>
</g>
</g>
</g>
<path d="M36.9171 65.5871C53.3254 65.5871 66.6272 52.2853 66.6272 35.8771C66.6272 19.4686 53.3254 6.16699 36.9171 6.16699C20.5087 6.16699 7.20703 19.4686 7.20703 35.8771C7.20703 52.2853 20.5087 65.5871 36.9171 65.5871Z" fill="#282728"/>
<path d="M36.9186 61.4947C51.0668 61.4947 62.5365 50.0253 62.5365 35.8768C62.5365 21.7283 51.0668 10.2588 36.9186 10.2588C22.7701 10.2588 11.3005 21.7283 11.3005 35.8768C11.3005 50.0253 22.7701 61.4947 36.9186 61.4947Z" fill="url(#paint0_radial_51_4109)"/>
<path d="M36.9174 49.3899C29.4651 49.3899 23.4036 43.3281 23.4036 35.876C23.4036 28.4239 29.4651 22.3623 36.9174 22.3623C44.3695 22.3623 50.431 28.4239 50.431 35.876C50.431 43.3281 44.3695 49.3899 36.9174 49.3899ZM36.9174 24.1241C30.4383 24.1241 25.1654 29.3971 25.1654 35.876C25.1654 42.355 30.4383 47.6278 36.9174 47.6278C43.3961 47.6278 48.6692 42.355 48.6692 35.876C48.6692 29.3971 43.3961 24.1241 36.9174 24.1241Z" fill="#8DD5E3"/>
<path d="M36.9173 55.6953L29.3225 63.2902L36.9173 70.885L44.5122 63.2902L36.9173 55.6953Z" fill="#282728"/>
<path d="M36.918 58.7559L32.3839 63.2896L36.918 67.8233L41.4517 63.2896L36.918 58.7559Z" fill="#58C3BA"/>
<path d="M67.8336 20.5237L57.5211 17.5205L54.5179 27.8329L64.8305 30.836L67.8336 20.5237Z" fill="#282728"/>
<path d="M65.1502 21.9968L58.9943 20.2041L57.2017 26.3601L63.3575 28.1528L65.1502 21.9968Z" fill="#58C3BA"/>
<path d="M9.17004 30.835L19.4824 27.8319L16.4792 17.5195L6.16687 20.5227L9.17004 30.835Z" fill="#282728"/>
<path d="M10.6427 28.1528L16.7987 26.3601L15.006 20.2041L8.84998 21.9968L10.6427 28.1528Z" fill="#58C3BA"/>
<path d="M16.0377 47.4869L33.7085 17.5965L32.4795 12.8018L39.2499 18.62L24.5134 42.8453H38.7088L41.8655 47.4869H16.0377Z" fill="#FBE9C3"/>
<path d="M33.3598 14.2196L38.5993 18.7228L24.5486 41.8217L23.6216 43.3467H25.4065H38.4442L40.917 46.9857H16.9182L34.0332 18.0328L34.245 17.6762L34.1423 17.2735L33.3598 14.2196ZM31.5961 11.3818L33.1689 17.521L15.1584 47.9881H42.8108L38.9727 42.344H25.4044L39.8977 18.5173L31.5961 11.3818Z" fill="#EEB124"/>
<path d="M47.705 47.4858L45.1357 43.1753H50.0835L45.5781 37.0216L34.229 37.2587L35.5296 34.0431H43.3467L40.0013 29.2128L42.4026 25.5801L57.712 47.4858H47.705Z" fill="#FBE9C3"/>
<path d="M42.4128 26.4714L56.7487 46.9844H47.9878L46.0163 43.6788H49.0931H51.0711L49.9028 42.0825L46.1359 36.9355L45.8276 36.514L45.3053 36.5245L34.9773 36.7404L35.8669 34.5444H42.3897H44.3047L43.2141 32.9691L40.6069 29.2044L42.4128 26.4714ZM42.3897 24.6865L39.3967 29.2191L42.3897 33.542H35.1913L33.4779 37.7767L45.3284 37.5269L49.0953 42.6739H44.2523L47.4214 47.9868H58.6761L42.3897 24.6865Z" fill="#EEB124"/>
</g>
<defs>
<radialGradient id="paint0_radial_51_4109" cx="0" cy="0" r="1" gradientUnits="userSpaceOnUse" gradientTransform="translate(36.9186 35.8762) scale(25.6179)">
<stop stop-color="#487ABD"/>
<stop offset="0.1695" stop-color="#4774B2"/>
<stop offset="0.4231" stop-color="#42689D"/>
<stop offset="0.7277" stop-color="#39567F"/>
<stop offset="1" stop-color="#2F4363"/>
</radialGradient>
</defs>
</svg>
