<svg width="24" height="24" viewBox="0 0 24 24" fill="none" xmlns="http://www.w3.org/2000/svg">
<path d="M12 24C18.6274 24 24 18.6274 24 12C24 5.37258 18.6274 0 12 0C5.37258 0 0 5.37258 0 12C0 18.6274 5.37258 24 12 24Z" fill="#172852"/>
<path d="M9.6661 5.36273C11.0713 4.83713 12.6529 4.83593 14.0845 5.26793C15.9481 5.84633 17.5213 7.25273 18.3433 9.01793C18.5701 9.52073 18.7873 10.0451 18.8089 10.6043C17.7613 9.99713 16.6129 9.60353 15.4621 9.24473C13.6213 8.58113 11.6941 8.12033 9.9517 7.20833C9.5461 6.96593 9.0289 6.71753 8.9185 6.21233C8.8741 5.77553 9.3361 5.53193 9.6661 5.36273Z" fill="#FFD83D"/>
<path d="M5.4239 9.61081C5.8307 8.50681 6.4979 7.48201 7.4039 6.72241C7.6343 8.61721 8.4407 10.4484 9.7727 11.826C11.3699 13.4856 13.6451 14.5044 15.9599 14.466C16.8791 14.4948 17.7779 14.2824 18.6743 14.1108C17.7923 17.298 14.2991 19.4136 11.0627 18.9048C9.1091 18.6552 7.3055 17.4984 6.2171 15.8652C4.98949 14.0604 4.6799 11.664 5.4239 9.61081Z" fill="#FFD83D"/>
<path d="M15.4619 9.24487C16.6127 9.60367 17.7611 9.99727 18.8087 10.6045L18.8795 10.6417C18.9767 11.3725 19.0475 12.1177 18.9179 12.8497C18.3911 12.6265 17.9639 12.2341 17.5175 11.8873C16.6583 11.1721 15.7811 10.3537 15.4619 9.24487Z" fill="#FF6F03"/>
</svg>
