<svg width="28" height="28" viewBox="0 0 28 28" fill="none" xmlns="http://www.w3.org/2000/svg">
<g clip-path="url(#clip0_6_131)">
<path d="M14 28.0002C21.732 28.0002 28 21.7322 28 14.0002C28 6.26825 21.732 0.000244141 14 0.000244141C6.26801 0.000244141 0 6.26825 0 14.0002C0 21.7322 6.26801 28.0002 14 28.0002Z" fill="#DA0A17"/>
<path d="M20.0196 8.35312L4.66663 5.5271L12.7471 25.857L24.0046 12.1405L20.0196 8.35312ZM19.7729 9.598L22.1214 11.8311L15.6983 12.9949L19.7729 9.598ZM14.3025 12.7604L7.53196 7.14515L18.598 9.1818L14.3025 12.7604ZM13.8212 13.7536L12.7176 22.88L6.76469 7.90137L13.8212 13.7536ZM14.8426 14.2385L21.9557 12.9507L13.7979 22.8911L14.8426 14.2385Z" fill="white"/>
</g>
<defs>
<clipPath id="clip0_6_131">
<rect width="28" height="28" fill="white" transform="translate(0 0.000244141)"/>
</clipPath>
</defs>
</svg>
