<svg width="32" height="32" viewBox="0 0 32 32" fill="none" xmlns="http://www.w3.org/2000/svg">
<path d="M16 32C24.8365 32 32 24.8365 32 16C32 7.16344 24.8365 0 16 0C7.16344 0 0 7.16344 0 16C0 24.8365 7.16344 32 16 32Z" fill="white"/>
<mask id="mask0_57_6352" style="mask-type:alpha" maskUnits="userSpaceOnUse" x="0" y="0" width="32" height="32">
<path d="M16 32C24.8366 32 32 24.8366 32 16C32 7.16344 24.8366 0 16 0C7.16344 0 0 7.16344 0 16C0 24.8366 7.16344 32 16 32Z" fill="#C4C4C4"/>
</mask>
<g mask="url(#mask0_57_6352)">
<path d="M31.9855 18.0796C31.5311 18.8284 31.5055 19.7116 31.2527 20.5228C30.4527 23.166 29.1231 25.4172 27.1023 27.3324C25.5023 28.8396 23.7791 30.0524 21.7375 30.8236C18.1967 32.1516 14.6223 32.1996 11.0175 31.078C10.3951 30.8844 10.2959 30.702 10.6655 30.118C13.5183 25.5964 16.3359 21.0524 19.1663 16.518C19.2495 16.3836 19.3535 16.2604 19.4495 16.1324C19.8271 16.326 20.3151 15.798 20.5583 16.1564C20.8463 16.582 21.1871 16.4764 21.5279 16.4764C24.682 16.486 27.8367 16.486 30.9919 16.4764C31.3615 16.4764 31.7391 16.4316 31.9887 16.7964L31.9855 18.0796ZM25.1615 24.6396C23.5391 22.126 21.9999 19.7484 20.4703 17.366C20.2079 16.9564 20.0719 17.126 19.8607 17.4172C18.8447 18.8092 18.0527 20.3404 17.1103 21.7772C16.9503 22.0188 16.8927 22.2332 17.0575 22.51C17.4111 23.1004 17.7407 23.7052 18.0639 24.3132C18.1127 24.4211 18.194 24.511 18.2964 24.5703C18.3988 24.6298 18.5172 24.6556 18.6351 24.6444C20.7599 24.6396 22.8799 24.6396 25.1615 24.6396Z" fill="url(#paint0_linear_57_6352)"/>
<path d="M31.9855 16.7994C31.7359 16.433 31.3583 16.4794 30.9887 16.4794C27.8335 16.4794 24.6788 16.4794 21.5247 16.4794C21.1839 16.4794 20.8431 16.5818 20.5551 16.1594C20.3119 15.801 19.8239 16.329 19.4463 16.1354C20.6015 14.257 21.7572 12.3786 22.9135 10.5002C24.0575 8.65217 25.2319 6.82017 26.3471 4.95937C26.7103 4.35457 26.9231 4.22657 27.4671 4.80737C29.7895 7.21504 31.3088 10.2832 31.8159 13.5898C31.8431 13.7642 31.7807 13.9738 31.9759 14.0906L31.9855 16.7994Z" fill="url(#paint1_linear_57_6352)"/>
<path d="M18.5599 0.0107422C19.3359 0.503542 20.2751 0.465142 21.1039 0.796342C22.0639 1.17714 22.0639 1.14834 21.5279 2.01394C19.1908 5.77714 16.8532 9.53981 14.5151 13.3019C13.9151 14.2619 13.2831 15.2107 12.6655 16.1643C8.83348 16.1643 5.00148 16.1515 1.16948 16.1643C0.689478 16.1643 0.313478 16.1259 0.239878 15.4779C0.030278 16.1867 0.399882 16.8475 0.0142822 17.4315V13.7595C0.372682 13.6635 0.289482 13.3467 0.334282 13.1035C1.40148 6.81074 6.47028 1.59794 12.7647 0.32274C13.0111 0.27314 13.3119 0.311542 13.4479 0.0107422H18.5599ZM6.32468 7.34354L11.8735 15.4859C12.9935 13.7675 14.0351 12.1643 15.0831 10.5659C15.1823 10.4408 15.2344 10.2847 15.2303 10.1251C15.2261 9.96541 15.1661 9.81226 15.0607 9.69234C14.5807 9.02674 14.1135 8.34514 13.6527 7.66354C13.5935 7.56049 13.5067 7.47597 13.4021 7.41945C13.2976 7.36293 13.1793 7.33665 13.0607 7.34354C10.8799 7.34674 8.69908 7.34354 6.32468 7.34354Z" fill="url(#paint2_linear_57_6352)"/>
<path d="M0.0110779 17.4399C0.403078 16.8559 0.0270736 16.1951 0.236674 15.4863C0.310274 16.1343 0.683073 16.1743 1.16627 16.1727C5.00628 16.1551 8.83028 16.1727 12.6623 16.1727C11.3641 18.2847 10.066 20.3967 8.76788 22.5087C7.79348 24.0863 6.78708 25.6463 5.84628 27.2447C5.50388 27.8271 5.28468 27.7599 4.86388 27.3375C2.49436 25.0057 0.910034 21.9937 0.331078 18.7199C0.287878 18.4847 0.390278 18.1551 0.0110779 18.0799V17.4399Z" fill="url(#paint3_linear_57_6352)"/>
</g>
<defs>
<linearGradient id="paint0_linear_57_6352" x1="15.9999" y1="0.010835" x2="15.9999" y2="31.873" gradientUnits="userSpaceOnUse">
<stop stop-color="#42C7FC"/>
<stop offset="1" stop-color="#287CF8"/>
</linearGradient>
<linearGradient id="paint1_linear_57_6352" x1="15.9999" y1="0.0105709" x2="15.9999" y2="31.8727" gradientUnits="userSpaceOnUse">
<stop stop-color="#42C7FC"/>
<stop offset="1" stop-color="#287CF8"/>
</linearGradient>
<linearGradient id="paint2_linear_57_6352" x1="15.9999" y1="0.0107422" x2="15.9999" y2="31.8729" gradientUnits="userSpaceOnUse">
<stop stop-color="#42C7FC"/>
<stop offset="1" stop-color="#287CF8"/>
</linearGradient>
<linearGradient id="paint3_linear_57_6352" x1="15.9999" y1="0.0111287" x2="15.9999" y2="31.8733" gradientUnits="userSpaceOnUse">
<stop stop-color="#42C7FC"/>
<stop offset="1" stop-color="#287CF8"/>
</linearGradient>
</defs>
</svg>
