<svg width="32" height="32" viewBox="0 0 32 32" fill="none" xmlns="http://www.w3.org/2000/svg">
<path d="M16 32C24.8366 32 32 24.8366 32 16C32 7.16344 24.8366 0 16 0C7.16344 0 0 7.16344 0 16C0 24.8366 7.16344 32 16 32Z" fill="#1E2026"/>
<path d="M16.2856 4L9.97021 7.6761L12.2921 9.03415L16.2856 6.7161L20.2791 9.03415L22.601 7.6761L16.2856 4Z" fill="#F0B90B"/>
<path d="M20.2791 10.9541L22.601 12.3122V15.0283L18.6074 17.3463V21.9824L16.2856 23.3405L13.9638 21.9824V17.3463L9.97021 15.0283V12.3122L12.2921 10.9541L16.2856 13.2722L20.2791 10.9541Z" fill="#F0B90B"/>
<path d="M22.6012 16.9482V19.6643L20.2793 21.0223V18.3062L22.6012 16.9482Z" fill="#F0B90B"/>
<path d="M20.2559 22.9426L24.2494 20.6246V15.9885L26.5712 14.6304V21.9826L20.2559 25.6587V22.9426Z" fill="#F0B90B"/>
<path d="M24.2495 11.3523L21.9277 9.99428L24.2495 8.63623L26.5713 9.99428V12.7103L24.2495 14.0684V11.3523Z" fill="#F0B90B"/>
<path d="M13.9639 26.6419V23.9258L16.2857 25.2838L18.6075 23.9258V26.6419L16.2857 27.9999L13.9639 26.6419Z" fill="#F0B90B"/>
<path d="M12.2921 21.0223L9.97021 19.6643V16.9482L12.2921 18.3062V21.0223Z" fill="#F0B90B"/>
<path d="M16.2857 11.3523L13.9639 9.99428L16.2857 8.63623L18.6075 9.99428L16.2857 11.3523Z" fill="#F0B90B"/>
<path d="M10.6437 9.99428L8.32183 11.3523V14.0684L6 12.7103V9.99428L8.32183 8.63623L10.6437 9.99428Z" fill="#F0B90B"/>
<path d="M6 14.6304L8.32183 15.9885V20.6246L12.3154 22.9426V25.6587L6 21.9826V14.6304Z" fill="#F0B90B"/>
</svg>
