<svg width="32" height="32" viewBox="0 0 32 32" fill="none" xmlns="http://www.w3.org/2000/svg">
<path d="M16 32C24.8366 32 32 24.8366 32 16C32 7.16344 24.8366 0 16 0C7.16344 0 0 7.16344 0 16C0 24.8366 7.16344 32 16 32Z" fill="white"/>
<path d="M6 10.486C6 8.00844 8.00844 6 10.486 6H21.514C23.9916 6 26 8.00844 26 10.486V21.514C26 23.9916 23.9916 26 21.514 26H10.486C8.00844 26 6 23.9916 6 21.514V10.486Z" fill="#0A59FF"/>
<path d="M23.056 15.9999C23.056 19.8969 19.8969 23.056 15.9999 23.056C12.103 23.056 8.94385 19.8969 8.94385 15.9999C8.94385 12.103 12.103 8.94385 15.9999 8.94385C19.8969 8.94385 23.056 12.103 23.056 15.9999Z" fill="white"/>
<path d="M13.7104 14.2712C13.7104 13.9615 13.9615 13.7104 14.2712 13.7104H17.7291C18.0388 13.7104 18.2899 13.9615 18.2899 14.2712V17.7291C18.2899 18.0388 18.0388 18.2899 17.7291 18.2899H14.2712C13.9615 18.2899 13.7104 18.0388 13.7104 17.7291V14.2712Z" fill="#0A59FF"/>
</svg>
