<svg width="32" height="32" viewBox="0 0 32 32" fill="none" xmlns="http://www.w3.org/2000/svg">
<path d="M16 32C24.8366 32 32 24.8366 32 16C32 7.16344 24.8366 0 16 0C7.16344 0 0 7.16344 0 16C0 24.8366 7.16344 32 16 32Z" fill="white"/>
<path fill-rule="evenodd" clip-rule="evenodd" d="M6.72316 19.662C6.72291 19.6808 6.72278 19.6996 6.72278 19.7185C6.72278 22.0262 8.59354 23.8969 10.9012 23.8969C13.2089 23.8969 15.0796 22.0262 15.0796 19.7185C15.0796 19.6996 15.0795 19.6808 15.0793 19.662L13.1026 19.662C13.1031 19.6808 13.1033 19.6996 13.1033 19.7185C13.1033 20.9347 12.1174 21.9206 10.9012 21.9206C9.68498 21.9206 8.69904 20.9347 8.69904 19.7185C8.69904 19.6996 8.69928 19.6808 8.69975 19.662L6.72316 19.662ZM10.9012 8.14307C13.6143 8.14307 15.8137 10.3425 15.8137 13.0556C15.8137 15.7687 13.6143 17.9681 10.9012 17.9681C8.18816 17.9681 5.98877 15.7687 5.98877 13.0556C5.98877 10.3425 8.18816 8.14307 10.9012 8.14307ZM10.9012 10.1193C12.5229 10.1193 13.8375 11.4339 13.8375 13.0555C13.8375 14.6771 12.5229 15.9918 10.9012 15.9918C9.27963 15.9918 7.96505 14.6771 7.96505 13.0555C7.96505 11.4339 9.27963 10.1193 10.9012 10.1193ZM11.24 12.097C11.6348 12.2365 11.9176 12.613 11.9176 13.0556C11.9176 13.6169 11.4626 14.0719 10.9012 14.0719C10.3399 14.0719 9.88488 13.6169 9.88488 13.0556C9.88488 12.613 10.1677 12.2366 10.5624 12.097V11.4181L11.24 11.4181V12.097ZM17.5105 14.3255C17.1847 13.7306 16.9995 13.0477 16.9995 12.3215C16.9995 10.0138 18.8702 8.14307 21.1779 8.14307C23.4856 8.14307 25.3563 10.0138 25.3563 12.3215C25.3563 13.0477 25.1711 13.7306 24.8453 14.3256C24.3294 13.919 23.7444 13.5962 23.1107 13.3778C23.2825 13.0642 23.3801 12.7042 23.3801 12.3215C23.3801 11.1053 22.3942 10.1194 21.1779 10.1194C19.9617 10.1194 18.9758 11.1053 18.9758 12.3215C18.9758 12.7042 19.0734 13.0642 19.2451 13.3777C18.6115 13.5961 18.0264 13.9189 17.5105 14.3255ZM21.1779 23.8969C23.891 23.8969 26.0904 21.6975 26.0904 18.9844C26.0904 16.2713 23.891 14.0719 21.1779 14.0719C18.4648 14.0719 16.2654 16.2713 16.2654 18.9844C16.2654 21.6975 18.4648 23.8969 21.1779 23.8969ZM21.1779 21.9206C22.7996 21.9206 24.1141 20.606 24.1141 18.9844C24.1141 17.3628 22.7996 16.0482 21.1779 16.0482C19.5563 16.0482 18.2417 17.3628 18.2417 18.9844C18.2417 20.606 19.5563 21.9206 21.1779 21.9206ZM21.5167 19.943C21.9115 19.8035 22.1943 19.427 22.1943 18.9844C22.1943 18.4231 21.7393 17.9681 21.1779 17.9681C20.6166 17.9681 20.1616 18.4231 20.1616 18.9844C20.1616 19.4269 20.4444 19.8034 20.8391 19.943V20.6219L21.5167 20.6219V19.943Z" fill="#DEAE30"/>
</svg>
