<svg width="32" height="32" viewBox="0 0 32 32" fill="none" xmlns="http://www.w3.org/2000/svg">
<path d="M16 32C24.8366 32 32 24.8366 32 16C32 7.16344 24.8366 0 16 0C7.16344 0 0 7.16344 0 16C0 24.8366 7.16344 32 16 32Z" fill="white"/>
<path d="M15.7 6.7C15.4 8.2 13.8 11.3 12.1 13.4C10.4 15.5 9 17.9 9 18.7C9 21.5 12.1 25.9 14.1 26C14.4 26 14.5 24.6 14.2 23C13.9 20.9 14.5 18.8 16.4 16C19.3 11.6 19.5 9.6 17.6 6.1L16.3 3.8L15.7 6.7Z" fill="#01003B"/>
<path d="M19.8 16.1998C17.6 19.5998 16.8 22.7998 17.7 24.4998C18.5 25.7998 18.9 25.7998 20.8 23.9998C23 21.8998 23.7 17.5998 22.1 15.1998C21.5 14.1998 20.9 14.3998 19.8 16.1998Z" fill="#3E89D0"/>
</svg>
