<svg width="32" height="32" viewBox="0 0 32 32" fill="none" xmlns="http://www.w3.org/2000/svg">
<path d="M16 32C24.8366 32 32 24.8366 32 16C32 7.16344 24.8366 0 16 0C7.16344 0 0 7.16344 0 16C0 24.8366 7.16344 32 16 32Z" fill="white"/>
<path fill-rule="evenodd" clip-rule="evenodd" d="M22.1523 14.5704C21.6305 14.0486 21.6305 13.2025 22.1523 12.6807C22.6741 12.1589 23.5201 12.1589 24.042 12.6807C24.5638 13.2025 24.5638 14.0486 24.042 14.5704C23.5201 15.0922 22.6741 15.0922 22.1523 14.5704ZM17.6643 19.0584C17.2729 18.667 17.2729 18.0325 17.6643 17.6411C18.0556 17.2498 18.6902 17.2498 19.0815 17.6411C19.4729 18.0325 19.4729 18.667 19.0815 19.0584C18.6902 19.4498 18.0556 19.4498 17.6643 19.0584ZM24.7506 16.6963C24.3592 16.3049 24.3592 15.6704 24.7506 15.279C25.1419 14.8877 25.7765 14.8877 26.1678 15.279C26.5592 15.6704 26.5592 16.3049 26.1678 16.6963C25.7765 17.0877 25.1419 17.0877 24.7506 16.6963ZM22.3885 19.0584C21.9971 18.667 21.9971 18.0325 22.3885 17.6411C22.7798 17.2498 23.4144 17.2498 23.8057 17.6411C24.1971 18.0325 24.1971 18.667 23.8057 19.0584C23.4144 19.4498 22.7798 19.4498 22.3885 19.0584ZM27.3489 18.8222C27.088 18.5613 27.088 18.1382 27.3489 17.8773C27.6098 17.6164 28.0328 17.6164 28.2937 17.8773C28.5546 18.1382 28.5546 18.5613 28.2937 18.8222C28.0328 19.0831 27.6098 19.0831 27.3489 18.8222ZM24.9868 21.1843C24.7259 20.9234 24.7259 20.5003 24.9868 20.2394C25.2477 19.9785 25.6707 19.9785 25.9316 20.2394C26.1925 20.5003 26.1925 20.9234 25.9316 21.1843C25.6707 21.4452 25.2477 21.4452 24.9868 21.1843ZM19.7902 16.9325C19.2684 16.4107 19.2684 15.5646 19.7902 15.0428C20.312 14.521 21.158 14.521 21.6799 15.0428C22.2017 15.5646 22.2017 16.4107 21.6799 16.9325C21.158 17.4543 20.312 17.4543 19.7902 16.9325ZM19.7902 12.2083C19.2684 11.6865 19.2684 10.8404 19.7902 10.3186C20.312 9.7968 21.158 9.7968 21.6799 10.3186C22.2017 10.8404 22.2017 11.6865 21.6799 12.2083C21.158 12.7301 20.312 12.7301 19.7902 12.2083ZM17.4281 14.5704C16.9063 14.0486 16.9063 13.2025 17.4281 12.6807C17.9499 12.1589 18.7959 12.1589 19.3178 12.6807C19.8396 13.2025 19.8396 14.0486 19.3178 14.5704C18.7959 15.0922 17.9499 15.0922 17.4281 14.5704ZM12.6819 14.5704C12.1601 14.0486 12.1601 13.2025 12.6819 12.6807C13.2037 12.1589 14.0498 12.1589 14.5716 12.6807C15.0934 13.2025 15.0934 14.0486 14.5716 14.5704C14.0498 15.0922 13.2037 15.0922 12.6819 14.5704ZM8.19393 19.0584C7.80256 18.667 7.80256 18.0325 8.19393 17.6411C8.5853 17.2498 9.21983 17.2498 9.6112 17.6411C10.0025 18.0325 10.0025 18.667 9.6112 19.0584C9.21983 19.4498 8.5853 19.4498 8.19393 19.0584ZM15.2802 16.6963C14.8889 16.3049 14.8889 15.6704 15.2802 15.279C15.6716 14.8877 16.3061 14.8877 16.6975 15.279C17.0889 15.6704 17.0889 16.3049 16.6975 16.6963C16.3061 17.0877 15.6716 17.0877 15.2802 16.6963ZM12.9181 19.0584C12.5268 18.667 12.5268 18.0325 12.9181 17.6411C13.3095 17.2498 13.944 17.2498 14.3354 17.6411C14.7267 18.0325 14.7267 18.667 14.3354 19.0584C13.944 19.4498 13.3095 19.4498 12.9181 19.0584ZM3.70593 18.8222C3.44503 18.5613 3.44503 18.1382 3.70593 17.8773C3.96683 17.6164 4.38986 17.6164 4.65076 17.8773C4.9117 18.1382 4.9117 18.5613 4.65076 18.8222C4.38986 19.0831 3.96683 19.0831 3.70593 18.8222ZM6.06803 21.1843C5.80713 20.9234 5.80713 20.5003 6.06803 20.2394C6.32893 19.9785 6.75196 19.9785 7.01286 20.2394C7.2738 20.5003 7.2738 20.9234 7.01286 21.1843C6.75196 21.4452 6.32893 21.4452 6.06803 21.1843ZM15.5164 21.1843C15.2555 20.9234 15.2555 20.5003 15.5164 20.2394C15.7773 19.9785 16.2004 19.9785 16.4613 20.2394C16.7222 20.5003 16.7222 20.9234 16.4613 21.1843C16.2004 21.4452 15.7773 21.4452 15.5164 21.1843ZM5.83183 16.6963C5.44046 16.3049 5.44046 15.6704 5.83183 15.279C6.2232 14.8877 6.85773 14.8877 7.2491 15.279C7.64043 15.6704 7.64043 16.3049 7.2491 16.6963C6.85773 17.0877 6.2232 17.0877 5.83183 16.6963ZM10.3198 16.9325C9.798 16.4107 9.798 15.5646 10.3198 15.0428C10.8416 14.521 11.6877 14.521 12.2095 15.0428C12.7313 15.5646 12.7313 16.4107 12.2095 16.9325C11.6877 17.4543 10.8416 17.4543 10.3198 16.9325ZM10.3198 12.2083C9.798 11.6865 9.798 10.8404 10.3198 10.3186C10.8416 9.7968 11.6877 9.7968 12.2095 10.3186C12.7313 10.8404 12.7313 11.6865 12.2095 12.2083C11.6877 12.7301 10.8416 12.7301 10.3198 12.2083ZM7.9577 14.5704C7.4359 14.0486 7.4359 13.2025 7.9577 12.6807C8.47953 12.1589 9.32556 12.1589 9.8474 12.6807C10.3692 13.2025 10.3692 14.0486 9.8474 14.5704C9.32556 15.0922 8.47953 15.0922 7.9577 14.5704Z" fill="#1D222A"/>
</svg>
