<svg width="32" height="32" viewBox="0 0 32 32" fill="none" xmlns="http://www.w3.org/2000/svg">
<path d="M16 32C24.8366 32 32 24.8366 32 16C32 7.16344 24.8366 0 16 0C7.16344 0 0 7.16344 0 16C0 24.8366 7.16344 32 16 32Z" fill="white"/>
<path d="M25.9201 5.63867L17.314 12.0167L18.9127 8.25794L25.9201 5.63867Z" fill="#E17726"/>
<path d="M6.08838 5.63867L14.6094 12.0763L13.0872 8.25794L6.08838 5.63867Z" fill="#E27625"/>
<path d="M22.8247 20.4268L20.5371 23.9304L25.4355 25.2826L26.8301 20.5033L22.8247 20.4268Z" fill="#E27625"/>
<path d="M5.17871 20.5033L6.56488 25.2826L11.4632 23.9304L9.18414 20.4268L5.17871 20.5033Z" fill="#E27625"/>
<path d="M11.1997 14.5085L9.83057 16.5665L14.6864 16.7876L14.5163 11.5576L11.1997 14.5085Z" fill="#E27625"/>
<path d="M20.8091 14.5085L17.433 11.498L17.314 16.7875L22.1698 16.5664L20.8091 14.5085Z" fill="#E27625"/>
<path d="M11.4629 23.9307L14.3883 22.5105L11.8711 20.5376L11.4629 23.9307Z" fill="#E27625"/>
<path d="M17.6113 22.5105L20.5367 23.9307L20.1285 20.5376L17.6113 22.5105Z" fill="#E27625"/>
<path d="M20.5367 23.9309L17.6113 22.5107L17.8409 24.4157L17.8154 25.215L20.5367 23.9309Z" fill="#D5BFB2"/>
<path d="M11.4629 23.9309L14.1842 25.215L14.1672 24.4157L14.3883 22.5107L11.4629 23.9309Z" fill="#D5BFB2"/>
<path d="M14.2354 19.2791L11.8032 18.5648L13.521 17.7739L14.2354 19.2791Z" fill="#233447"/>
<path d="M17.7646 19.2791L18.479 17.7739L20.2138 18.5648L17.7646 19.2791Z" fill="#233447"/>
<path d="M11.4632 23.9304L11.8884 20.4268L9.18408 20.5033L11.4632 23.9304Z" fill="#CC6228"/>
<path d="M20.1118 20.4268L20.537 23.9304L22.8246 20.5033L20.1118 20.4268Z" fill="#CC6228"/>
<path d="M22.1698 16.5664L17.314 16.7875L17.7647 19.2792L18.479 17.774L20.2139 18.5649L22.1698 16.5664Z" fill="#CC6228"/>
<path d="M11.8035 18.5649L13.5213 17.774L14.2357 19.2792L14.6864 16.7875L9.83057 16.5664L11.8035 18.5649Z" fill="#CC6228"/>
<path d="M9.83057 16.5664L11.8715 20.5378L11.8035 18.5649L9.83057 16.5664Z" fill="#E27525"/>
<path d="M20.214 18.5649L20.1289 20.5378L22.1699 16.5664L20.214 18.5649Z" fill="#E27525"/>
<path d="M14.6861 16.7871L14.2354 19.2788L14.8051 22.2212L14.9242 18.3433L14.6861 16.7871Z" fill="#E27525"/>
<path d="M17.3141 16.7871L17.0845 18.3348L17.195 22.2212L17.7648 19.2788L17.3141 16.7871Z" fill="#E27525"/>
<path d="M17.7646 19.2793L17.1948 22.2217L17.6115 22.5108L20.1287 20.5379L20.2138 18.5649L17.7646 19.2793Z" fill="#F5841F"/>
<path d="M11.8032 18.5649L11.8713 20.5379L14.3885 22.5108L14.8052 22.2217L14.2354 19.2793L11.8032 18.5649Z" fill="#F5841F"/>
<path d="M17.8154 25.2148L17.8409 24.4154L17.6283 24.2283H14.3713L14.1672 24.4154L14.1842 25.2148L11.4629 23.9307L12.4153 24.713L14.3458 26.0482H17.6538L19.5843 24.713L20.5367 23.9307L17.8154 25.2148Z" fill="#C0AC9D"/>
<path d="M17.6116 22.5103L17.1949 22.2212H14.8053L14.3886 22.5103L14.1675 24.4152L14.3716 24.2281H17.6286L17.8412 24.4152L17.6116 22.5103Z" fill="#161616"/>
<path d="M26.277 12.4334L26.9998 8.91274L25.9198 5.63867L17.6113 11.8041L20.8089 14.5084L25.316 15.8265L26.311 14.6615L25.8773 14.3468L26.5746 13.7175L26.0474 13.3008L26.7362 12.7821L26.277 12.4334Z" fill="#763E1A"/>
<path d="M5 8.91274L5.73133 12.4334L5.26363 12.7821L5.95247 13.3008L5.4252 13.7175L6.12253 14.3468L5.68883 14.6615L6.6838 15.8265L11.1995 14.5084L14.3885 11.8041L6.08853 5.63867L5 8.91274Z" fill="#763E1A"/>
<path d="M25.3164 15.8264L20.8092 14.5083L22.1699 16.5663L20.1289 20.5377L22.8247 20.5037H26.8301L25.3164 15.8264Z" fill="#F5841F"/>
<path d="M11.1996 14.5083L6.68394 15.8264L5.17871 20.5037H9.18414L11.8714 20.5377L9.83044 16.5663L11.1996 14.5083Z" fill="#F5841F"/>
<path d="M17.3139 16.7874L17.6115 11.804L18.9127 8.25781H13.0874L14.3885 11.804L14.6862 16.7874L14.7967 18.3521L14.8052 22.2215H17.1948L17.2034 18.3521L17.3139 16.7874Z" fill="#F5841F"/>
</svg>
