<svg width="32" height="32" viewBox="0 0 32 32" fill="none" xmlns="http://www.w3.org/2000/svg">
<path d="M16 32C24.8366 32 32 24.8366 32 16C32 7.16344 24.8366 0 16 0C7.16344 0 0 7.16344 0 16C0 24.8366 7.16344 32 16 32Z" fill="white"/>
<path d="M18.8503 13.9796V16.822H15.7984V28.5324L15.0028 28.2358C14.6333 28.0985 14.038 27.8646 13.3019 27.5306L12.956 27.3726V4.89393L15.9858 3.95898L18.8503 4.84227V7.90865L15.9858 7.02233L15.7984 7.08038V13.9796H18.8503ZM5.3335 16.822V7.258L12.0569 5.18277V8.23508L8.17559 9.44001V13.9796H12.0569V27.1269L11.1972 26.6848C8.52226 25.3079 5.3335 22.9862 5.3335 19.7447V18.2166H8.17559V19.7447C8.17559 20.4154 8.52464 21.1202 9.2144 21.8458V16.822H5.3335ZM19.7131 5.1101L26.6015 7.24207V16.822H22.5572V20.9704C22.5572 20.9704 21.6529 22.1558 19.7156 23.1484C19.7156 22.3561 19.7131 5.1101 19.7131 5.1101ZM23.7595 13.9796V9.42614L22.5572 9.055V13.9796H23.7595ZM23.7595 19.9554V18.2165H26.6015V19.9554C26.6015 24.7863 19.5922 27.5669 17.4435 28.3043L16.6621 28.5744V25.569L17.0439 25.4248C20.3865 24.1668 23.7595 21.9876 23.7595 19.9554Z" fill="black"/>
</svg>
