<svg width="32" height="32" viewBox="0 0 32 32" fill="none" xmlns="http://www.w3.org/2000/svg">
<g clip-path="url(#clip0_111_14300)">
<path d="M16.0016 32.0032C24.8391 32.0032 32.0032 24.8391 32.0032 16.0016C32.0032 7.16417 24.8391 0 16.0016 0C7.16417 0 0 7.16417 0 16.0016C0 24.8391 7.16417 32.0032 16.0016 32.0032Z" fill="#3375BB"/>
<path d="M16.0014 7.63055L16.4391 7.06092C16.3131 6.96409 16.1587 6.91162 15.9998 6.91162C15.8409 6.91162 15.6865 6.96409 15.5605 7.06092L16.0014 7.63055ZM23.5259 9.84155H24.2436C24.2449 9.74635 24.2273 9.65185 24.1918 9.56345C24.1564 9.47509 24.1038 9.39462 24.037 9.32669C23.9703 9.25879 23.8908 9.20475 23.8031 9.16772C23.7153 9.13069 23.6211 9.11142 23.5259 9.11099V9.84155ZM16.0014 25.2124L15.6024 25.811C15.72 25.8897 15.8583 25.9317 15.9998 25.9317C16.1413 25.9317 16.2797 25.8897 16.3973 25.811L16.0014 25.2124ZM8.48336 9.84155V9.12065C8.38816 9.12109 8.29396 9.14035 8.20623 9.17739C8.11849 9.21439 8.03899 9.26842 7.97226 9.33635C7.90553 9.40429 7.85293 9.48475 7.81746 9.57312C7.78199 9.66149 7.76439 9.75602 7.76569 9.85122L8.48336 9.84155ZM15.5637 8.19699C18.8207 10.7202 22.5508 10.5593 23.5291 10.5593V9.12065C22.5154 9.12065 19.2681 9.24939 16.4488 7.06092L15.5637 8.19699ZM22.8114 9.82869C22.7567 13.1629 22.6151 15.5155 22.3448 17.2566C22.0744 18.9978 21.7011 20.0148 21.2087 20.7421C20.7163 21.4694 20.0855 21.9426 19.1618 22.4929C18.2382 23.0432 17.057 23.6547 15.6024 24.617L16.4134 25.811C17.7908 24.8937 18.9366 24.308 19.9117 23.7255C20.8943 23.1904 21.747 22.4454 22.4092 21.5434C23.0528 20.5779 23.4937 19.2906 23.777 17.4755C24.0602 15.6603 24.205 13.2176 24.2597 9.85122L22.8114 9.82869ZM16.4134 24.617C14.9683 23.6515 13.7904 23.0529 12.8732 22.4961C11.956 21.9393 11.3252 21.4952 10.8296 20.7421C10.3339 19.989 9.93163 18.9881 9.65486 17.2566C9.37806 15.5252 9.25576 13.1629 9.20106 9.82869L7.76569 9.85122C7.82039 13.2176 7.96843 15.6668 8.24843 17.4755C8.52843 19.2842 8.95646 20.5715 9.61299 21.5434C10.272 22.4459 11.1227 23.1911 12.104 23.7255C13.0695 24.308 14.2249 24.8937 15.6024 25.811L16.4134 24.617ZM8.48336 10.5593C9.44886 10.5593 13.1822 10.7202 16.4391 8.19699L15.5605 7.06092C12.7348 9.24939 9.48749 9.12065 8.48016 9.12065L8.48336 10.5593Z" fill="white"/>
</g>
<defs>
<clipPath id="clip0_111_14300">
<rect width="32" height="32" fill="white"/>
</clipPath>
</defs>
</svg>
