<svg width="32" height="32" viewBox="0 0 32 32" fill="none" xmlns="http://www.w3.org/2000/svg">
<g clip-path="url(#clip0_111_14307)">
<path d="M32 16C32 7.16343 24.8366 -1.07313e-07 16 -6.91323e-08C7.16343 -3.09515e-08 0 7.16343 0 16C0 24.8366 7.16343 32 16 32C24.8366 32 32 24.8366 32 16Z" fill="#3389FB"/>
<path d="M9.8974 11.8083C13.2677 8.50855 18.732 8.50855 22.1023 11.8083L22.5079 12.2055C22.6764 12.3705 22.6764 12.638 22.5079 12.803L21.1204 14.1615C21.0361 14.244 20.8995 14.244 20.8152 14.1615L20.2571 13.615C17.9059 11.313 14.0938 11.313 11.7426 13.615L11.1449 14.2002C11.0606 14.2827 10.924 14.2827 10.8397 14.2002L9.4522 12.8417C9.28367 12.6767 9.28367 12.4092 9.4522 12.2442L9.8974 11.8083ZM24.9719 14.6179L26.2068 15.827C26.3753 15.992 26.3753 16.2595 26.2068 16.4245L20.6385 21.8764C20.4699 22.0414 20.1967 22.0414 20.0282 21.8764L16.0762 18.007C16.034 17.9658 15.9657 17.9658 15.9236 18.007L11.9716 21.8764C11.8031 22.0414 11.5299 22.0414 11.3614 21.8764L5.7929 16.4244C5.62437 16.2594 5.62437 15.9919 5.7929 15.8269L7.0278 14.6178C7.19634 14.4529 7.46954 14.4529 7.63804 14.6178L11.5902 18.4873C11.6323 18.5285 11.7006 18.5285 11.7427 18.4873L15.6946 14.6178C15.8632 14.4528 16.1364 14.4528 16.3049 14.6178L20.257 18.4873C20.2991 18.5285 20.3674 18.5285 20.4096 18.4873L24.3616 14.6179C24.5301 14.4529 24.8033 14.4529 24.9719 14.6179Z" fill="white"/>
</g>
<defs>
<clipPath id="clip0_111_14307">
<rect width="32" height="32" fill="white"/>
</clipPath>
</defs>
</svg>
